<svg width="6" height="6" viewBox="0 0 6 6" fill="none" xmlns="http://www.w3.org/2000/svg">
<g id="Icons">
<path id="Union" fill-rule="evenodd" clip-rule="evenodd" d="M5.24549 5.87447C5.41809 6.04184 5.69794 6.04184 5.87055 5.87447C6.04315 5.70711 6.04315 5.43575 5.87055 5.26838L3.53583 3.00451C3.53587 3.00151 3.53587 2.9985 3.53584 2.99549L5.87055 0.731618C6.04315 0.56425 6.04315 0.292894 5.87055 0.125526C5.69794 -0.0418409 5.41809 -0.0418409 5.24549 0.125526L3 2.30288L0.754511 0.125525C0.581906 -0.0418421 0.302059 -0.0418421 0.129454 0.125525C-0.0431514 0.292893 -0.0431514 0.564249 0.129454 0.731617L2.46416 2.99549C2.46413 2.99849 2.46413 3.0015 2.46416 3.00451L0.129453 5.26838C-0.0431521 5.43575 -0.0431521 5.70711 0.129453 5.87447C0.302058 6.04184 0.581906 6.04184 0.754511 5.87447L3 3.69712L5.24549 5.87447Z" fill="#0B4936"/>
</g>
</svg>
