<svg width="2661" height="697" viewBox="0 0 2661 697" fill="none" xmlns="http://www.w3.org/2000/svg">
<path fill-rule="evenodd" clip-rule="evenodd" d="M820.16 516.944C838.933 535.376 864.021 544.592 895.424 544.592C926.827 544.592 951.915 535.376 970.688 516.944C989.803 498.512 999.36 473.936 999.36 443.216V448.216C999.36 478.936 989.803 503.512 970.688 521.944C951.915 540.376 926.827 549.592 895.424 549.592C864.021 549.592 838.933 540.376 820.16 521.944C801.387 503.512 792 478.936 792 448.216V443.216C792 473.936 801.387 498.512 820.16 516.944ZM792 284.376C792 253.656 801.387 229.08 820.16 210.648C838.933 192.216 864.021 183 895.424 183C926.827 183 951.915 192.216 970.688 210.648C989.803 229.08 999.36 253.656 999.36 284.376V279.376C999.36 248.656 989.803 224.08 970.688 205.648C951.915 187.216 926.827 178 895.424 178C864.021 178 838.933 187.216 820.16 205.648C801.387 224.08 792 248.656 792 279.376V284.376ZM918.464 472.912C912.661 479.397 904.981 482.64 895.424 482.64C885.867 482.64 878.187 479.397 872.384 472.912C866.923 466.085 864.192 457.211 864.192 446.288V451.288C864.192 462.211 866.923 471.085 872.384 477.912C878.187 484.397 885.867 487.64 895.424 487.64C904.981 487.64 912.661 484.397 918.464 477.912C924.267 471.085 927.168 462.211 927.168 451.288V446.288C927.168 457.211 924.267 466.085 918.464 472.912ZM927.168 281.304C927.168 270.381 924.267 261.677 918.464 255.192C912.661 248.365 904.981 244.952 895.424 244.952C885.867 244.952 878.187 248.365 872.384 255.192C866.923 261.677 864.192 270.381 864.192 281.304V276.304C864.192 265.381 866.923 256.677 872.384 250.192C878.187 243.365 885.867 239.952 895.424 239.952C904.981 239.952 912.661 243.365 918.464 250.192C924.267 256.677 927.168 265.381 927.168 276.304V281.304ZM1061.65 517.456C1080.42 535.547 1105.17 544.592 1135.89 544.592C1166.61 544.592 1191.35 535.547 1210.13 517.456C1228.9 499.024 1238.29 474.448 1238.29 443.728V448.728C1238.29 479.448 1228.9 504.024 1210.13 522.456C1191.35 540.547 1166.61 549.592 1135.89 549.592C1105.17 549.592 1080.42 540.547 1061.65 522.456C1043.22 504.024 1034 479.448 1034 448.728V443.728C1034 474.448 1043.22 499.024 1061.65 517.456ZM1034 282.84C1034 252.461 1043.22 228.227 1061.65 210.136C1080.42 192.045 1105.17 183 1135.89 183C1166.95 183 1191.7 192.045 1210.13 210.136C1228.9 228.227 1238.29 252.461 1238.29 282.84V277.84C1238.29 247.461 1228.9 223.227 1210.13 205.136C1191.7 187.045 1166.95 178 1135.89 178C1105.17 178 1080.42 187.045 1061.65 205.136C1043.22 223.227 1034 247.461 1034 277.84V282.84ZM1238.29 283.472C1238.29 285.179 1237.6 286.715 1236.24 288.08C1235.22 289.104 1233.85 289.616 1232.14 289.616L1172.24 292.176C1168.14 292.176 1166.1 290.299 1166.1 286.544V291.544C1166.1 295.299 1168.14 297.176 1172.24 297.176L1232.14 294.616C1233.85 294.616 1235.22 294.104 1236.24 293.08C1237.6 291.715 1238.29 290.179 1238.29 288.472V283.472ZM1166.1 278.232V273.232C1166.1 263.333 1163.36 255.312 1157.9 249.168C1152.44 243.024 1145.1 239.952 1135.89 239.952C1127.01 239.952 1119.85 243.024 1114.38 249.168C1108.92 255.312 1106.19 263.333 1106.19 273.232V278.232C1106.19 268.333 1108.92 260.312 1114.38 254.168C1119.85 248.024 1127.01 244.952 1135.89 244.952C1145.1 244.952 1152.44 248.024 1157.9 254.168C1163.36 260.312 1166.1 268.333 1166.1 278.232ZM1106.19 449.872V454.872C1106.19 464.771 1108.92 472.792 1114.38 478.936C1119.85 484.739 1127.01 487.64 1135.89 487.64C1145.1 487.64 1152.44 484.739 1157.9 478.936C1163.36 472.792 1166.1 464.771 1166.1 454.872V449.872C1166.1 459.771 1163.36 467.792 1157.9 473.936C1152.44 479.739 1145.1 482.64 1135.89 482.64C1127.01 482.64 1119.85 479.739 1114.38 473.936C1108.92 467.792 1106.19 459.771 1106.19 449.872ZM1166.1 441.048C1166.1 439.341 1166.61 437.976 1167.63 436.952C1169 435.587 1170.53 434.904 1172.24 434.904L1232.14 437.464C1233.85 437.464 1235.22 438.147 1236.24 439.512C1237.6 440.536 1238.29 441.901 1238.29 443.608V438.608C1238.29 436.901 1237.6 435.536 1236.24 434.512C1235.22 433.147 1233.85 432.464 1232.14 432.464L1172.24 429.904C1170.53 429.904 1169 430.587 1167.63 431.952C1166.61 432.976 1166.1 434.341 1166.1 436.048V441.048ZM1406.67 184.144C1405.64 185.168 1405.13 186.533 1405.13 188.24V193.24C1405.13 191.533 1405.64 190.168 1406.67 189.144C1408.03 187.779 1409.57 187.096 1411.28 187.096H1471.18C1472.89 187.096 1474.25 187.779 1475.28 189.144C1476.64 190.168 1477.32 191.533 1477.32 193.24V188.24C1477.32 186.533 1476.64 185.168 1475.28 184.144C1474.25 182.779 1472.89 182.096 1471.18 182.096H1411.28C1409.57 182.096 1408.03 182.779 1406.67 184.144ZM1477.32 534.352C1477.32 536.059 1476.64 537.595 1475.28 538.96C1474.25 539.984 1472.89 540.496 1471.18 540.496H1411.28C1409.57 540.496 1408.03 539.984 1406.67 538.96C1405.64 537.595 1405.13 536.059 1405.13 534.352V539.352C1405.13 541.059 1405.64 542.595 1406.67 543.96C1408.03 544.984 1409.57 545.496 1411.28 545.496H1471.18C1472.89 545.496 1474.25 544.984 1475.28 543.96C1476.64 542.595 1477.32 541.059 1477.32 539.352V534.352ZM1405.13 399.576V394.576C1405.13 392.869 1404.28 392.016 1402.57 392.016H1351.37C1349.67 392.016 1348.81 392.869 1348.81 394.576V399.576C1348.81 397.869 1349.67 397.016 1351.37 397.016H1402.57C1404.28 397.016 1405.13 397.869 1405.13 399.576ZM1348.81 534.352C1348.81 536.059 1348.13 537.595 1346.76 538.96C1345.74 539.984 1344.38 540.496 1342.67 540.496H1282.76C1281.06 540.496 1279.52 539.984 1278.16 538.96C1277.13 537.595 1276.62 536.059 1276.62 534.352V539.352C1276.62 541.059 1277.13 542.595 1278.16 543.96C1279.52 544.984 1281.06 545.496 1282.76 545.496H1342.67C1344.38 545.496 1345.74 544.984 1346.76 543.96C1348.13 542.595 1348.81 541.059 1348.81 539.352V534.352ZM1276.62 193.24C1276.62 191.533 1277.13 190.168 1278.16 189.144C1279.52 187.779 1281.06 187.096 1282.76 187.096H1342.67C1344.38 187.096 1345.74 187.779 1346.76 189.144C1348.13 190.168 1348.81 191.533 1348.81 193.24V188.24C1348.81 186.533 1348.13 185.168 1346.76 184.144C1345.74 182.779 1344.38 182.096 1342.67 182.096H1282.76C1281.06 182.096 1279.52 182.779 1278.16 184.144C1277.13 185.168 1276.62 186.533 1276.62 188.24V193.24ZM1348.81 327.504V332.504C1348.81 334.211 1349.67 335.064 1351.37 335.064H1402.57C1404.28 335.064 1405.13 334.211 1405.13 332.504V327.504C1405.13 329.211 1404.28 330.064 1402.57 330.064H1351.37C1349.67 330.064 1348.81 329.211 1348.81 327.504ZM1545.66 516.944C1564.43 535.376 1589.52 544.592 1620.92 544.592C1652.33 544.592 1677.41 535.376 1696.19 516.944C1715.3 498.512 1724.86 473.936 1724.86 443.216V448.216C1724.86 478.936 1715.3 503.512 1696.19 521.944C1677.41 540.376 1652.33 549.592 1620.92 549.592C1589.52 549.592 1564.43 540.376 1545.66 521.944C1526.89 503.512 1517.5 478.936 1517.5 448.216V443.216C1517.5 473.936 1526.89 498.512 1545.66 516.944ZM1517.5 284.376C1517.5 253.656 1526.89 229.08 1545.66 210.648C1564.43 192.216 1589.52 183 1620.92 183C1652.33 183 1677.41 192.216 1696.19 210.648C1715.3 229.08 1724.86 253.656 1724.86 284.376V279.376C1724.86 248.656 1715.3 224.08 1696.19 205.648C1677.41 187.216 1652.33 178 1620.92 178C1589.52 178 1564.43 187.216 1545.66 205.648C1526.89 224.08 1517.5 248.656 1517.5 279.376V284.376ZM1643.96 472.912C1638.16 479.397 1630.48 482.64 1620.92 482.64C1611.37 482.64 1603.69 479.397 1597.88 472.912C1592.42 466.085 1589.69 457.211 1589.69 446.288V451.288C1589.69 462.211 1592.42 471.085 1597.88 477.912C1603.69 484.397 1611.37 487.64 1620.92 487.64C1630.48 487.64 1638.16 484.397 1643.96 477.912C1649.77 471.085 1652.67 462.211 1652.67 451.288V446.288C1652.67 457.211 1649.77 466.085 1643.96 472.912ZM1652.67 281.304C1652.67 270.381 1649.77 261.677 1643.96 255.192C1638.16 248.365 1630.48 244.952 1620.92 244.952C1611.37 244.952 1603.69 248.365 1597.88 255.192C1592.42 261.677 1589.69 270.381 1589.69 281.304V276.304C1589.69 265.381 1592.42 256.677 1597.88 250.192C1603.69 243.365 1611.37 239.952 1620.92 239.952C1630.48 239.952 1638.16 243.365 1643.96 250.192C1649.77 256.677 1652.67 265.381 1652.67 276.304V281.304ZM1787.15 517.456C1805.92 535.547 1830.67 544.592 1861.39 544.592C1892.11 544.592 1916.85 535.547 1935.63 517.456C1954.4 499.024 1963.79 474.448 1963.79 443.728V448.728C1963.79 479.448 1954.4 504.024 1935.63 522.456C1916.85 540.547 1892.11 549.592 1861.39 549.592C1830.67 549.592 1805.92 540.547 1787.15 522.456C1768.72 504.024 1759.5 479.448 1759.5 448.728V443.728C1759.5 474.448 1768.72 499.024 1787.15 517.456ZM1759.5 282.84C1759.5 252.461 1768.72 228.227 1787.15 210.136C1805.92 192.045 1830.67 183 1861.39 183C1892.45 183 1917.2 192.045 1935.63 210.136C1954.4 228.227 1963.79 252.461 1963.79 282.84V277.84C1963.79 247.461 1954.4 223.227 1935.63 205.136C1917.2 187.045 1892.45 178 1861.39 178C1830.67 178 1805.92 187.045 1787.15 205.136C1768.72 223.227 1759.5 247.461 1759.5 277.84V282.84ZM1963.79 283.472C1963.79 285.179 1963.11 286.715 1961.74 288.08C1960.72 289.104 1959.35 289.616 1957.64 289.616L1897.74 292.176C1893.64 292.176 1891.6 290.299 1891.6 286.544V291.544C1891.6 295.299 1893.64 297.176 1897.74 297.176L1957.64 294.616C1959.35 294.616 1960.72 294.104 1961.74 293.08C1963.11 291.715 1963.79 290.179 1963.79 288.472V283.472ZM1891.6 278.232V273.232C1891.6 263.333 1888.87 255.312 1883.4 249.168C1877.94 243.024 1870.6 239.952 1861.39 239.952C1852.51 239.952 1845.35 243.024 1839.88 249.168C1834.42 255.312 1831.69 263.333 1831.69 273.232V278.232C1831.69 268.333 1834.42 260.312 1839.88 254.168C1845.35 248.024 1852.51 244.952 1861.39 244.952C1870.6 244.952 1877.94 248.024 1883.4 254.168C1888.87 260.312 1891.6 268.333 1891.6 278.232ZM1831.69 449.872V454.872C1831.69 464.771 1834.42 472.792 1839.88 478.936C1845.35 484.739 1852.51 487.64 1861.39 487.64C1870.6 487.64 1877.94 484.739 1883.4 478.936C1888.87 472.792 1891.6 464.771 1891.6 454.872V449.872C1891.6 459.771 1888.87 467.792 1883.4 473.936C1877.94 479.739 1870.6 482.64 1861.39 482.64C1852.51 482.64 1845.35 479.739 1839.88 473.936C1834.42 467.792 1831.69 459.771 1831.69 449.872ZM1891.6 441.048C1891.6 439.341 1892.11 437.976 1893.13 436.952C1894.5 435.587 1896.03 434.904 1897.74 434.904L1957.64 437.464C1959.35 437.464 1960.72 438.147 1961.74 439.512C1963.11 440.536 1963.79 441.901 1963.79 443.608V438.608C1963.79 436.901 1963.11 435.536 1961.74 434.512C1960.72 433.147 1959.35 432.464 1957.64 432.464L1897.74 429.904C1896.03 429.904 1894.5 430.587 1893.13 431.952C1892.11 432.976 1891.6 434.341 1891.6 436.048V441.048ZM2140.99 534.864C2141.33 538.619 2143.55 540.496 2147.65 540.496H2209.09C2211.61 540.496 2213.29 539.801 2214.12 538.412L2214.21 538.84L2214.72 540.888C2214.72 543.96 2212.84 545.496 2209.09 545.496H2147.65C2143.55 545.496 2141.33 543.619 2140.99 539.864L2132.8 490.712C2132.8 489.005 2131.78 488.152 2129.73 488.152H2064.7C2062.66 488.152 2061.63 489.005 2061.63 490.712L2053.44 539.864C2053.1 543.619 2050.88 545.496 2046.78 545.496H1986.88C1982.44 545.496 1980.74 543.277 1981.76 538.84L1981.9 538.217C1982.62 539.736 1984.28 540.496 1986.88 540.496H2046.78C2050.88 540.496 2053.1 538.619 2053.44 534.864L2061.63 485.712C2061.63 484.005 2062.66 483.152 2064.7 483.152H2129.73C2131.78 483.152 2132.8 484.005 2132.8 485.712L2140.99 534.864ZM1981.9 538.217C1981.38 537.14 1981.34 535.681 1981.76 533.84L2057.02 187.728C2057.71 183.973 2059.93 182.096 2063.68 182.096H2132.8C2136.55 182.096 2138.77 183.973 2139.46 187.728L2214.21 533.84L2214.72 535.888C2214.72 536.894 2214.52 537.736 2214.12 538.412L2139.46 192.728C2138.77 188.973 2136.55 187.096 2132.8 187.096H2063.68C2059.93 187.096 2057.71 188.973 2057.02 192.728L1981.9 538.217ZM2072.38 426.699C2072.04 426.273 2071.87 425.634 2071.87 424.784L2094.91 285.008C2095.25 283.984 2095.77 283.472 2096.45 283.472C2097.13 283.472 2097.64 283.984 2097.98 285.008L2122.05 424.784C2122.25 425.807 2122.09 426.524 2121.56 426.934L2097.98 290.008C2097.64 288.984 2097.13 288.472 2096.45 288.472C2095.77 288.472 2095.25 288.984 2094.91 290.008L2072.38 426.699ZM2072.38 426.699L2071.87 429.784C2071.87 431.491 2072.55 432.344 2073.92 432.344H2120C2121.71 432.344 2122.39 431.491 2122.05 429.784L2121.56 426.934C2121.2 427.207 2120.68 427.344 2120 427.344H2073.92C2073.23 427.344 2072.72 427.129 2072.38 426.699ZM2271.06 532.816C2286.07 540.667 2303.48 544.592 2323.28 544.592C2353.32 544.592 2377.55 535.717 2395.98 517.968C2413.89 500.728 2423.09 477.693 2423.61 448.861C2423.62 449.664 2423.63 450.473 2423.63 451.288C2423.63 481.325 2414.42 505.219 2395.98 522.968C2377.55 540.717 2353.32 549.592 2323.28 549.592C2303.48 549.592 2286.07 545.667 2271.06 537.816C2256.04 529.965 2244.43 519.043 2236.24 505.048C2228.05 490.712 2223.95 474.328 2223.95 455.896V450.896C2223.95 469.328 2228.05 485.712 2236.24 500.048C2244.43 514.043 2256.04 524.965 2271.06 532.816ZM2223.95 441.048C2223.95 439.341 2224.46 437.976 2225.49 436.952C2226.85 435.587 2228.39 434.904 2230.1 434.904H2288.98C2290.68 434.904 2292.05 435.587 2293.07 436.952C2294.44 437.976 2295.12 439.341 2295.12 441.048V436.048C2295.12 434.341 2294.44 432.976 2293.07 431.952C2292.05 430.587 2290.68 429.904 2288.98 429.904H2230.1C2228.39 429.904 2226.85 430.587 2225.49 431.952C2224.46 432.976 2223.95 434.341 2223.95 436.048V441.048ZM2295.12 447.312V452.312C2295.12 462.893 2297.85 471.427 2303.31 477.912C2308.77 484.397 2315.6 487.64 2323.79 487.64C2331.98 487.64 2338.81 484.568 2344.27 478.424C2349.73 472.28 2352.46 464.259 2352.46 454.36C2352.46 453.547 2352.44 452.744 2352.4 451.951C2352.44 451.102 2352.46 450.238 2352.46 449.36C2352.46 439.12 2349.05 430.416 2342.22 423.248C2335.4 415.739 2322.09 404.816 2302.29 390.48C2285.22 378.192 2271.4 367.269 2260.82 357.712C2250.23 348.155 2241.19 336.379 2233.68 322.384C2226.51 309.021 2222.76 293.635 2222.44 276.227C2222.95 248.385 2231.99 226.014 2249.55 209.112C2267.64 191.704 2291.54 183 2321.23 183C2351.27 183 2375.33 192.045 2393.42 210.136C2411.86 228.227 2421.07 251.949 2421.07 281.304V276.304C2421.07 246.949 2411.86 223.227 2393.42 205.136C2375.33 187.045 2351.27 178 2321.23 178C2291.54 178 2267.64 186.704 2249.55 204.112C2231.46 221.52 2222.42 244.731 2222.42 273.744C2222.42 274.576 2222.42 275.404 2222.44 276.227C2222.42 277.061 2222.42 277.9 2222.42 278.744C2222.42 297.176 2226.17 313.389 2233.68 327.384C2241.19 341.379 2250.23 353.155 2260.82 362.712C2271.4 372.269 2285.22 383.192 2302.29 395.48C2322.09 409.816 2335.4 420.739 2342.22 428.248C2348.51 434.847 2351.9 442.748 2352.4 451.951C2351.96 460.667 2349.25 467.825 2344.27 473.424C2338.81 479.568 2331.98 482.64 2323.79 482.64C2315.6 482.64 2308.77 479.397 2303.31 472.912C2297.85 466.427 2295.12 457.893 2295.12 447.312ZM2421.07 288.592C2421.07 290.299 2420.39 291.835 2419.02 293.2C2418 294.224 2416.63 294.736 2414.93 294.736H2356.05C2354.34 294.736 2352.81 294.224 2351.44 293.2C2350.42 291.835 2349.9 290.299 2349.9 288.592V293.592C2349.9 295.299 2350.42 296.835 2351.44 298.2C2352.81 299.224 2354.34 299.736 2356.05 299.736H2414.93C2416.63 299.736 2418 299.224 2419.02 298.2C2420.39 296.835 2421.07 295.299 2421.07 293.592V288.592ZM2349.9 279.768C2349.9 269.187 2347.17 260.824 2341.71 254.68C2336.59 248.195 2329.77 244.952 2321.23 244.952C2313.04 244.952 2306.38 248.024 2301.26 254.168C2296.58 259.472 2294.04 266.772 2293.64 276.069C2293.6 275.301 2293.58 274.526 2293.58 273.744C2293.58 263.163 2296.14 254.971 2301.26 249.168C2306.38 243.024 2313.04 239.952 2321.23 239.952C2329.77 239.952 2336.59 243.195 2341.71 249.68C2347.17 255.824 2349.9 264.187 2349.9 274.768V279.768ZM2303.31 300.88C2297.32 293.629 2294.1 285.358 2293.64 276.069C2293.6 276.943 2293.58 277.835 2293.58 278.744C2293.58 288.984 2296.83 298.029 2303.31 305.88C2309.8 313.731 2322.6 324.653 2341.71 338.648C2362.87 354.349 2378.75 367.149 2389.33 377.048C2400.25 386.605 2408.61 397.357 2414.42 409.304C2420.25 420.332 2423.32 433.518 2423.61 448.861C2423.62 448.008 2423.63 447.151 2423.63 446.288C2423.63 429.904 2420.56 415.909 2414.42 404.304C2408.61 392.357 2400.25 381.605 2389.33 372.048C2378.75 362.149 2362.87 349.349 2341.71 333.648C2322.6 319.653 2309.8 308.731 2303.31 300.88ZM2658.37 184.144C2657.35 182.779 2655.98 182.096 2654.28 182.096H2451.52C2449.82 182.096 2448.28 182.779 2446.92 184.144C2445.89 185.168 2445.38 186.533 2445.38 188.24V193.24C2445.38 191.533 2445.89 190.168 2446.92 189.144C2448.28 187.779 2449.82 187.096 2451.52 187.096H2654.28C2655.98 187.096 2657.35 187.779 2658.37 189.144C2659.74 190.168 2660.42 191.533 2660.42 193.24V188.24C2660.42 186.533 2659.74 185.168 2658.37 184.144ZM2660.42 237.904C2660.42 239.611 2659.74 241.147 2658.37 242.512C2657.35 243.536 2655.98 244.048 2654.28 244.048H2590.28C2588.57 244.048 2587.72 244.901 2587.72 246.608V251.608C2587.72 249.901 2588.57 249.048 2590.28 249.048H2654.28C2655.98 249.048 2657.35 248.536 2658.37 247.512C2659.74 246.147 2660.42 244.611 2660.42 242.904V237.904ZM2587.72 534.352C2587.72 536.059 2587.03 537.595 2585.67 538.96C2584.64 539.984 2583.28 540.496 2581.57 540.496H2521.67C2519.96 540.496 2518.43 539.984 2517.06 538.96C2516.04 537.595 2515.52 536.059 2515.52 534.352V539.352C2515.52 541.059 2516.04 542.595 2517.06 543.96C2518.43 544.984 2519.96 545.496 2521.67 545.496H2581.57C2583.28 545.496 2584.64 544.984 2585.67 543.96C2587.03 542.595 2587.72 541.059 2587.72 539.352V534.352ZM2515.52 251.608V246.608C2515.52 244.901 2514.67 244.048 2512.96 244.048H2451.52C2449.82 244.048 2448.28 243.536 2446.92 242.512C2445.89 241.147 2445.38 239.611 2445.38 237.904V242.904C2445.38 244.611 2445.89 246.147 2446.92 247.512C2448.28 248.536 2449.82 249.048 2451.52 249.048H2512.96C2514.67 249.048 2515.52 249.901 2515.52 251.608Z" fill="#CCCCCC"/>
<path d="M1854.89 536.592C1824.17 536.592 1799.42 527.547 1780.65 509.456C1762.22 491.024 1753 466.448 1753 435.728V269.84C1753 239.461 1762.22 215.227 1780.65 197.136C1799.42 179.045 1824.17 170 1854.89 170C1885.95 170 1910.69 179.045 1929.13 197.136C1947.9 215.227 1957.29 239.461 1957.29 269.84V275.472C1957.29 277.179 1956.6 278.715 1955.24 280.08C1954.21 281.104 1952.85 281.616 1951.14 281.616L1891.24 284.176C1887.14 284.176 1885.09 282.299 1885.09 278.544V265.232C1885.09 255.333 1882.36 247.312 1876.9 241.168C1871.44 235.024 1864.1 231.952 1854.89 231.952C1846.01 231.952 1838.84 235.024 1833.38 241.168C1827.92 247.312 1825.19 255.333 1825.19 265.232V441.872C1825.19 451.771 1827.92 459.792 1833.38 465.936C1838.84 471.739 1846.01 474.64 1854.89 474.64C1864.1 474.64 1871.44 471.739 1876.9 465.936C1882.36 459.792 1885.09 451.771 1885.09 441.872V428.048C1885.09 426.341 1885.61 424.976 1886.63 423.952C1888 422.587 1889.53 421.904 1891.24 421.904L1951.14 424.464C1952.85 424.464 1954.21 425.147 1955.24 426.512C1956.6 427.536 1957.29 428.901 1957.29 430.608V435.728C1957.29 466.448 1947.9 491.024 1929.13 509.456C1910.35 527.547 1885.61 536.592 1854.89 536.592ZM2141.15 532.496C2137.05 532.496 2134.83 530.619 2134.49 526.864L2126.3 477.712C2126.3 476.005 2125.27 475.152 2123.23 475.152H2058.2C2056.15 475.152 2055.13 476.005 2055.13 477.712L2046.94 526.864C2046.6 530.619 2044.38 532.496 2040.28 532.496H1980.38C1975.94 532.496 1974.23 530.277 1975.26 525.84L2050.52 179.728C2051.2 175.973 2053.42 174.096 2057.18 174.096H2126.3C2130.05 174.096 2132.27 175.973 2132.95 179.728L2207.71 525.84L2208.22 527.888C2208.22 530.96 2206.34 532.496 2202.59 532.496H2141.15ZM2065.37 416.784C2065.37 418.491 2066.05 419.344 2067.42 419.344H2090.46H2113.5C2115.2 419.344 2115.89 418.491 2115.55 416.784L2091.48 277.008C2091.14 275.984 2090.63 275.472 2089.95 275.472C2089.26 275.472 2088.75 275.984 2088.41 277.008L2065.37 416.784ZM2316.78 536.592C2296.98 536.592 2279.57 532.667 2264.55 524.816C2249.54 516.965 2237.93 506.043 2229.74 492.048C2221.55 477.712 2217.45 461.328 2217.45 442.896V428.048C2217.45 426.341 2217.96 424.976 2218.99 423.952C2220.35 422.587 2221.89 421.904 2223.59 421.904H2282.47C2284.18 421.904 2285.55 422.587 2286.57 423.952C2287.94 424.976 2288.62 426.341 2288.62 428.048V439.312C2288.62 449.893 2291.35 458.427 2296.81 464.912C2302.27 471.397 2309.1 474.64 2317.29 474.64C2325.48 474.64 2332.31 471.568 2337.77 465.424C2343.23 459.28 2345.96 451.259 2345.96 441.36C2345.96 431.12 2342.55 422.416 2335.72 415.248C2328.9 407.739 2315.58 396.816 2295.79 382.48C2278.72 370.192 2264.9 359.269 2254.31 349.712C2243.73 340.155 2234.69 328.379 2227.18 314.384C2219.67 300.389 2215.91 284.176 2215.91 265.744C2215.91 236.731 2224.96 213.52 2243.05 196.112C2261.14 178.704 2285.03 170 2314.73 170C2344.77 170 2368.83 179.045 2386.92 197.136C2405.35 215.227 2414.57 238.949 2414.57 268.304V280.592C2414.57 282.299 2413.89 283.835 2412.52 285.2C2411.5 286.224 2410.13 286.736 2408.43 286.736H2349.55C2347.84 286.736 2346.3 286.224 2344.94 285.2C2343.91 283.835 2343.4 282.299 2343.4 280.592V266.768C2343.4 256.187 2340.67 247.824 2335.21 241.68C2330.09 235.195 2323.26 231.952 2314.73 231.952C2306.54 231.952 2299.88 235.024 2294.76 241.168C2289.64 246.971 2287.08 255.163 2287.08 265.744C2287.08 275.984 2290.32 285.029 2296.81 292.88C2303.3 300.731 2316.1 311.653 2335.21 325.648C2356.37 341.349 2372.24 354.149 2382.83 364.048C2393.75 373.605 2402.11 384.357 2407.91 396.304C2414.06 407.909 2417.13 421.904 2417.13 438.288C2417.13 468.325 2407.91 492.219 2389.48 509.968C2371.05 527.717 2346.82 536.592 2316.78 536.592ZM2647.77 174.096C2649.48 174.096 2650.85 174.779 2651.87 176.144C2653.24 177.168 2653.92 178.533 2653.92 180.24V229.904C2653.92 231.611 2653.24 233.147 2651.87 234.512C2650.85 235.536 2649.48 236.048 2647.77 236.048H2583.77C2582.07 236.048 2581.21 236.901 2581.21 238.608V526.352C2581.21 528.059 2580.53 529.595 2579.17 530.96C2578.14 531.984 2576.78 532.496 2575.07 532.496H2515.17C2513.46 532.496 2511.92 531.984 2510.56 530.96C2509.53 529.595 2509.02 528.059 2509.02 526.352V238.608C2509.02 236.901 2508.17 236.048 2506.46 236.048H2445.02C2443.32 236.048 2441.78 235.536 2440.41 234.512C2439.39 233.147 2438.88 231.611 2438.88 229.904V180.24C2438.88 178.533 2439.39 177.168 2440.41 176.144C2441.78 174.779 2443.32 174.096 2445.02 174.096H2647.77Z" fill="black"/>
<path d="M895.424 536.592C864.021 536.592 838.933 527.376 820.16 508.944C801.387 490.512 792 465.936 792 435.216V271.376C792 240.656 801.387 216.08 820.16 197.648C838.933 179.216 864.021 170 895.424 170C926.827 170 951.915 179.216 970.688 197.648C989.803 216.08 999.36 240.656 999.36 271.376V435.216C999.36 465.936 989.803 490.512 970.688 508.944C951.915 527.376 926.827 536.592 895.424 536.592ZM895.424 474.64C904.981 474.64 912.661 471.397 918.464 464.912C924.267 458.085 927.168 449.211 927.168 438.288V268.304C927.168 257.381 924.267 248.677 918.464 242.192C912.661 235.365 904.981 231.952 895.424 231.952C885.867 231.952 878.187 235.365 872.384 242.192C866.923 248.677 864.192 257.381 864.192 268.304V438.288C864.192 449.211 866.923 458.085 872.384 464.912C878.187 471.397 885.867 474.64 895.424 474.64ZM1135.89 536.592C1105.17 536.592 1080.42 527.547 1061.65 509.456C1043.22 491.024 1034 466.448 1034 435.728V269.84C1034 239.461 1043.22 215.227 1061.65 197.136C1080.42 179.045 1105.17 170 1135.89 170C1166.95 170 1191.7 179.045 1210.13 197.136C1228.9 215.227 1238.29 239.461 1238.29 269.84V275.472C1238.29 277.179 1237.61 278.715 1236.24 280.08C1235.22 281.104 1233.85 281.616 1232.14 281.616L1172.24 284.176C1168.14 284.176 1166.1 282.299 1166.1 278.544V265.232C1166.1 255.333 1163.37 247.312 1157.9 241.168C1152.44 235.024 1145.1 231.952 1135.89 231.952C1127.01 231.952 1119.85 235.024 1114.38 241.168C1108.92 247.312 1106.19 255.333 1106.19 265.232V441.872C1106.19 451.771 1108.92 459.792 1114.38 465.936C1119.85 471.739 1127.01 474.64 1135.89 474.64C1145.1 474.64 1152.44 471.739 1157.9 465.936C1163.37 459.792 1166.1 451.771 1166.1 441.872V428.048C1166.1 426.341 1166.61 424.976 1167.63 423.952C1169 422.587 1170.53 421.904 1172.24 421.904L1232.14 424.464C1233.85 424.464 1235.22 425.147 1236.24 426.512C1237.61 427.536 1238.29 428.901 1238.29 430.608V435.728C1238.29 466.448 1228.9 491.024 1210.13 509.456C1191.36 527.547 1166.61 536.592 1135.89 536.592ZM1405.13 180.24C1405.13 178.533 1405.64 177.168 1406.67 176.144C1408.03 174.779 1409.57 174.096 1411.28 174.096H1471.18C1472.89 174.096 1474.25 174.779 1475.28 176.144C1476.64 177.168 1477.32 178.533 1477.32 180.24V526.352C1477.32 528.059 1476.64 529.595 1475.28 530.96C1474.25 531.984 1472.89 532.496 1471.18 532.496H1411.28C1409.57 532.496 1408.03 531.984 1406.67 530.96C1405.64 529.595 1405.13 528.059 1405.13 526.352V386.576C1405.13 384.869 1404.28 384.016 1402.57 384.016H1351.37C1349.67 384.016 1348.81 384.869 1348.81 386.576V526.352C1348.81 528.059 1348.13 529.595 1346.76 530.96C1345.74 531.984 1344.37 532.496 1342.67 532.496H1282.76C1281.06 532.496 1279.52 531.984 1278.16 530.96C1277.13 529.595 1276.62 528.059 1276.62 526.352V180.24C1276.62 178.533 1277.13 177.168 1278.16 176.144C1279.52 174.779 1281.06 174.096 1282.76 174.096H1342.67C1344.37 174.096 1345.74 174.779 1346.76 176.144C1348.13 177.168 1348.81 178.533 1348.81 180.24V319.504C1348.81 321.211 1349.67 322.064 1351.37 322.064H1402.57C1404.28 322.064 1405.13 321.211 1405.13 319.504V180.24ZM1620.92 536.592C1589.52 536.592 1564.43 527.376 1545.66 508.944C1526.89 490.512 1517.5 465.936 1517.5 435.216V271.376C1517.5 240.656 1526.89 216.08 1545.66 197.648C1564.43 179.216 1589.52 170 1620.92 170C1652.33 170 1677.41 179.216 1696.19 197.648C1715.3 216.08 1724.86 240.656 1724.86 271.376V435.216C1724.86 465.936 1715.3 490.512 1696.19 508.944C1677.41 527.376 1652.33 536.592 1620.92 536.592ZM1620.92 474.64C1630.48 474.64 1638.16 471.397 1643.96 464.912C1649.77 458.085 1652.67 449.211 1652.67 438.288V268.304C1652.67 257.381 1649.77 248.677 1643.96 242.192C1638.16 235.365 1630.48 231.952 1620.92 231.952C1611.37 231.952 1603.69 235.365 1597.88 242.192C1592.42 248.677 1589.69 257.381 1589.69 268.304V438.288C1589.69 449.211 1592.42 458.085 1597.88 464.912C1603.69 471.397 1611.37 474.64 1620.92 474.64Z" fill="white"/>
<path fill-rule="evenodd" clip-rule="evenodd" d="M2205.71 1.16139C2199.32 3.69839 2194.95 11.1724 2196.13 17.5044C2197.01 22.1674 2199.51 25.0004 2210.45 33.7094C2239 56.4394 2268.13 90.8684 2285.18 122.04C2290.64 132.009 2293.77 135.577 2298.44 137.116C2308.23 140.348 2319.07 130.843 2317.39 120.497C2316.67 116.053 2303.6 93.3504 2293.42 78.8614C2276.32 54.5304 2254.13 30.5834 2231.96 12.5264C2216.64 0.0533886 2212.74 -1.63561 2205.71 1.16139ZM2178.71 56.1614C2174.69 57.7564 2170.76 62.1464 2169.65 66.2584C2167.68 73.5614 2169.03 75.5914 2188.99 95.3224C2208.15 114.268 2216.61 124.647 2227.89 143.04C2233.27 151.816 2235.05 153.92 2238.77 155.852C2246.74 160.007 2254.14 157.433 2258.5 148.981C2261.63 142.926 2260.9 139.712 2253.61 127.54C2241.05 106.551 2220.94 82.3424 2203.2 66.8604C2189.72 55.0884 2185.76 53.3584 2178.71 56.1614ZM2149.83 112.75C2143.79 115.727 2140.5 123.847 2142.67 130.43C2143.34 132.459 2147.21 137.465 2151.81 142.246C2159.3 150.025 2167.07 159.673 2174.35 170.236C2178.12 175.707 2184.5 178.677 2190.19 177.61C2198.08 176.129 2203.93 167.134 2201.87 159.65C2199.11 149.68 2170.33 115.127 2162.2 112.037C2158.37 110.582 2153.68 110.853 2149.83 112.75Z" fill="black"/>
<path d="M369 2.034C391.155 3.78 405.003 6.077 429 11.988C434.42 13.323 457.293 20.776 461.5 22.578C463.15 23.285 469.225 25.779 475 28.119C487.969 33.376 510.767 45.103 521.5 52.039C523.15 53.106 525.175 54.288 526 54.666C526.825 55.044 527.725 55.612 528 55.927C529.19 57.29 535.01 61 535.96 61C536.532 61 537 61.367 537 61.816C537 62.265 538.688 63.591 540.75 64.763C543.843 66.521 550.231 71.429 561 80.323C572.999 90.232 586.631 103.366 597.5 115.491C609.345 128.704 613.232 133.363 617 138.864C620.257 143.619 625.32 150.364 626.11 151C626.451 151.275 627.046 152.512 627.433 153.75C627.819 154.987 628.554 156 629.067 156C629.58 156 630 156.434 630 156.965C630 157.734 636.944 169.925 641.981 178C643.151 179.875 647.024 187.774 650.316 195C651.694 198.025 653.076 202.075 653.387 204C654.691 212.083 648.716 219 640.429 219C634.809 219 631.795 215.981 625.816 204.361C619.866 192.796 617.612 188.614 617 188.001C616.725 187.725 615.961 186.6 615.302 185.5C607.486 172.454 602.436 164.885 597.289 158.5C596.845 157.95 594.923 155.475 593.017 153C591.111 150.525 589.315 148.275 589.026 148C588.737 147.725 586.874 145.475 584.888 143C575.996 131.925 554.108 109.964 545 102.981C542.525 101.083 540.05 99.031 539.5 98.42C538.95 97.809 535.575 95.118 532 92.438C528.425 89.759 525.35 87.215 525.167 86.784C524.983 86.353 524.449 86 523.98 86C523.51 86 520.169 83.975 516.553 81.5C512.938 79.025 509.683 77 509.319 77C508.955 77 507.925 76.337 507.029 75.526C504.507 73.244 483.157 62.147 468.5 55.501C465.2 54.005 461.143 52.154 459.485 51.388C457.827 50.622 455.127 49.58 453.485 49.073C451.843 48.565 448.025 47.21 445 46.062C439.955 44.146 422.683 39.168 415.5 37.559C396.252 33.247 392.799 32.605 381 31.139C348.697 27.128 308.6 30.292 274.5 39.544C263.976 42.399 239.884 50.378 239.395 51.17C239.113 51.627 237.965 52 236.845 52C235.725 52 233.502 52.675 231.904 53.5L226.096 56.5C224.498 57.325 222.511 58 221.679 58C220.847 58 220.017 58.337 219.833 58.75C219.65 59.163 215.548 61.46 210.717 63.856C194.264 72.016 163.447 92.638 150.099 104.42C145.074 108.856 115.857 138.037 113.474 141C112.369 142.375 108.46 147.195 104.788 151.711C101.116 156.228 97.569 160.953 96.906 162.211C96.243 163.47 95.426 164.725 95.091 165C94.026 165.873 86.753 177.087 85.362 180C84.968 180.825 84.328 181.725 83.939 182C83.55 182.275 81.777 185.2 80 188.5C78.222 191.8 75.47 196.838 73.884 199.696C72.298 202.554 71 205.375 71 205.966C71 208.205 65.798 215.152 62.715 217.033C52.993 222.96 42.795 214.516 44.731 202.141C45.044 200.138 46.583 196.074 48.15 193.109C49.718 190.144 51 187.107 51 186.359C51 185.612 51.401 185 51.892 185C52.382 185 53.093 183.767 53.471 182.26C53.849 180.753 54.46 179.29 54.829 179.009C55.198 178.728 56.342 176.924 57.372 174.999C60.516 169.124 63.054 164.631 64.818 161.821C65.743 160.347 68.414 156.044 70.752 152.257C73.091 148.47 75.791 144.501 76.752 143.436C77.714 142.371 79.625 139.816 81 137.757C82.375 135.698 83.838 134.011 84.25 134.007C84.662 134.003 85 133.529 85 132.952C85 132.376 86.016 130.913 87.259 129.702C88.501 128.491 91.762 124.8 94.505 121.5C105.058 108.806 125.041 88.864 133.967 82.12C135.874 80.679 138.191 78.825 139.116 78C144.241 73.428 146.228 71.828 153.779 66.186C158.333 62.784 162.458 60 162.946 60C163.434 60 163.983 59.662 164.167 59.25C164.501 58.499 172.18 53.172 175 51.736C175.825 51.316 178.75 49.615 181.5 47.956C184.25 46.298 188.975 43.771 192 42.342C195.025 40.913 197.65 39.351 197.833 38.872C198.017 38.392 198.741 38 199.443 38C200.144 38 203.248 36.65 206.34 35C209.432 33.35 212.646 32 213.481 32C214.316 32 215 31.599 215 31.108C215 30.618 216.137 29.931 217.527 29.582C218.918 29.234 222.63 27.797 225.777 26.389C236.418 21.631 238.064 21 239.834 21C240.805 21 242.027 20.615 242.55 20.145C243.45 19.334 250.956 16.707 257.5 14.912C274.246 10.318 283.164 8.236 291.041 7.08C294.089 6.633 297.464 5.989 298.541 5.649C300.502 5.029 313.345 3.369 326.5 2.034C336.725 0.996 355.827 0.996 369 2.034Z" fill="white"/>
<path fill-rule="evenodd" clip-rule="evenodd" d="M363.5 79.878C374.91 82.385 387.353 88.985 396.132 97.186C401.4 102.107 410 113.533 410 115.61C410 116.375 410.45 117 411 117C411.55 117 412 117.719 412 118.599C412 119.478 412.645 121.616 413.433 123.349C416.031 129.063 418 139.046 418 146.5C418 158.781 412.666 176.325 406.39 184.683C405.076 186.434 404 188.266 404 188.754C404 190.116 390.072 203.12 385 206.493C379.942 209.858 377.14 211.188 368.5 214.323C363.356 216.189 360.432 216.496 348 216.474C335.492 216.452 332.566 216.129 326.701 214.126C308.553 207.929 292.919 194.507 285.786 179C280.039 166.506 279.497 163.635 279.55 146C279.595 131.261 279.841 128.913 281.848 124C284.982 116.331 289.355 108.005 290.25 108.002C290.663 108.001 291 107.391 291 106.646C291 105.207 303.662 92 305.042 92C305.49 92 306.471 91.438 307.221 90.75C311.889 86.471 327.217 80.016 332.785 79.985C334.278 79.976 336.175 79.511 337 78.951C338.827 77.712 356.444 78.328 363.5 79.878ZM314 114.689L316.551 111.344C321.243 105.192 326.338 106.547 352.5 120.908C355.25 122.418 361.775 125.933 367 128.721C384.835 138.236 386.237 139.071 388.084 141.284C391.31 145.149 390.555 149.273 385.87 153.38C383.598 155.371 381.344 157 380.861 157C380.136 157 372.701 161.518 361.477 168.779C360.39 169.483 358.712 170.322 357.75 170.646C356.788 170.969 356 171.528 356 171.889C356 172.25 354.313 173.422 352.25 174.494C350.188 175.566 346.859 177.445 344.854 178.669C328.569 188.608 321.968 190.122 316.923 185.077L314 182.154V148.421V114.689Z" fill="white"/>
<path d="M557 220.652C562.225 221.531 566.928 222.643 567.45 223.125C567.972 223.606 569.426 224 570.68 224C573.079 224 576.692 225.23 589 230.236C599.793 234.626 609.447 239.235 609.833 240.183C610.017 240.632 610.668 241 611.282 241C612.266 241 625.71 249.504 627 250.942C627.275 251.249 629.75 253.281 632.5 255.457C642.747 263.566 664 287.439 664 290.841C664 291.387 664.386 291.983 664.857 292.167C665.904 292.573 672.134 303.489 675.607 311C680.532 321.654 681 322.817 681 324.401C681 325.281 681.374 326 681.832 326C682.289 326 683.143 327.913 683.73 330.25C684.316 332.587 685.69 337.65 686.782 341.5C690.871 355.911 692.276 369.015 691.757 387.881C691.491 397.571 690.788 407.525 690.195 410C689.603 412.475 688.371 417.875 687.458 422C685.899 429.045 682.63 439.02 679.266 447C676.745 452.98 668.611 469.474 667.923 470C667.564 470.275 666.954 471.512 666.567 472.75C666.181 473.987 665.446 475 664.933 475C664.42 475 664 475.468 664 476.04C664 477.021 660.696 482.13 658.5 484.546C657.95 485.151 656.15 487.386 654.5 489.513C647.03 499.142 622.438 521 619.076 521C618.484 521 618 521.42 618 521.933C618 522.446 616.987 523.181 615.75 523.567C614.513 523.954 613.275 524.546 613 524.885C610.598 527.84 592.009 536.194 578.5 540.389C546.757 550.246 508.995 550.009 478.5 539.761C464.359 535.008 449.121 527.911 445.197 524.25C444.46 523.563 443.214 523 442.429 523C441.643 523 441 522.64 441 522.199C441 521.759 438.892 520.072 436.316 518.449C433.739 516.827 430.927 514.809 430.066 513.965C429.205 513.12 425.98 510.53 422.9 508.209C413.921 501.442 407.535 494.808 405.786 490.429C402.927 483.273 404.834 480.726 429.413 458.869C432.115 456.466 437.34 451.575 441.024 448C450.047 439.243 452.767 437 454.367 437C455.604 437 462.578 442.591 467.488 447.519C480.311 460.388 507.118 470 530.184 470C538.162 470 552.05 467.671 560 464.999C568.232 462.233 581.321 454.594 587.342 449.043C595.785 441.258 599 437.96 599 437.084C599 436.58 599.364 436.017 599.808 435.833C600.946 435.364 606.14 427.271 608.366 422.5C609.392 420.3 610.855 417.306 611.616 415.846C612.377 414.386 613 412.338 613 411.296C613 410.253 613.465 408.935 614.034 408.366C616.902 405.498 619 378.289 617.063 369.071C615.5 361.626 613.139 353.389 611.169 348.5C606.239 336.27 594.821 322.052 582.861 313.251C575.011 307.474 560.029 300 556.299 300C555.254 300 553.837 299.438 553.15 298.75C551.438 297.039 507.964 296.956 505.903 298.661C505.132 299.299 502.813 300.136 500.75 300.522C498.688 300.907 497 301.623 497 302.111C497 302.6 496.256 303 495.346 303C493.477 303 480.679 309.885 480.167 311.167C479.983 311.625 479.196 312 478.417 312C477.637 312 477 312.346 477 312.768C477 313.191 475.869 314.223 474.487 315.062C473.104 315.901 468.042 320.227 463.237 324.675C454.474 332.788 450.806 336.287 428.439 357.865C393.446 391.624 370.341 413.787 349.069 434C340.097 442.525 329.5 452.65 325.519 456.5C321.539 460.35 315.181 466.405 311.391 469.956C307.601 473.507 299.978 480.707 294.45 485.956C282.805 497.015 269.033 509.536 264 513.641C262.075 515.211 259.412 517.478 258.083 518.68C256.754 519.882 254.166 521.673 252.333 522.66C250.5 523.647 249 524.802 249 525.227C249 525.652 248.541 526 247.98 526C247.419 526 245.244 527.083 243.147 528.407C238.332 531.447 222.298 538.296 213.902 540.899C195.406 546.635 177.247 548.587 156.901 547.026C142.949 545.955 128.107 543.636 124.967 542.036C124.124 541.606 121.874 540.918 119.967 540.507C111.618 538.708 85.612 526.945 78.515 521.758C77.957 521.35 73.873 518.378 69.439 515.153C60.495 508.647 43.364 492.117 40.447 487.18C39.414 485.431 38.216 484 37.784 484C37.353 484 37 483.363 37 482.583C37 481.804 36.663 481.017 36.25 480.833C34.692 480.141 28.966 471.02 23.704 460.849C16.837 447.577 12.168 434.197 7.355 414C4.747 403.053 4.738 364.344 7.342 351.5C8.345 346.55 9.579 341.719 10.083 340.764C10.587 339.809 11 338.348 11 337.518C11 335.305 14.834 324.432 18.132 317.292C19.71 313.877 21 310.652 21 310.125C21 309.598 21.338 309.017 21.75 308.833C22.163 308.65 23.393 306.7 24.484 304.5C27.515 298.392 34.642 286.819 37.208 283.84C38.469 282.377 40.934 279.424 42.688 277.278C46.933 272.081 57.625 261.385 63.122 256.835C69.98 251.158 79.906 244 80.919 244C81.422 244 81.983 243.663 82.167 243.25C82.35 242.838 84.075 241.652 86 240.617C97.808 234.263 102.441 232 103.642 232C104.389 232 105 231.55 105 231C105 230.45 106.035 230 107.3 230C108.565 230 110.085 229.515 110.678 228.922C111.27 228.33 113.273 227.448 115.128 226.963C116.982 226.479 120.975 225.332 124 224.415C140.663 219.363 173.982 217.448 191.91 220.511C197.185 221.412 202.4 222.496 203.5 222.919C204.6 223.342 207.975 224.455 211 225.392C218.979 227.865 223.398 229.712 233.5 234.801C238.45 237.295 243.963 240.029 245.75 240.876C247.537 241.723 249 242.773 249 243.208C249 243.644 249.498 244 250.106 244C251.135 244 257.724 248.769 260.89 251.804C261.655 252.538 263.455 253.894 264.89 254.819C267.876 256.743 270.114 258.552 277.925 265.357C291.727 277.381 292.851 278.997 291.638 285.061C291.083 287.834 289.4 289.674 277.508 300.5C269.745 307.568 253.877 322.368 249.106 326.991C246.263 329.746 243.388 331.997 242.718 331.993C240.726 331.983 235.022 327.668 228.12 320.95C223.319 316.277 214.582 310.284 207 306.463C202.875 304.384 198.306 302.08 196.846 301.342C195.386 300.604 193.275 300 192.155 300C191.035 300 189.879 299.613 189.587 299.14C189.294 298.667 183.53 297.718 176.778 297.032C163.454 295.678 150.429 296.613 140.552 299.634C120.395 305.799 105.436 316.31 95.065 331.595C82.688 349.836 79.017 361.61 79.035 383C79.049 398.504 80.396 405.162 86.319 419C87.868 422.619 94.189 433.273 95.706 434.821C96.418 435.548 97.008 436.448 97.017 436.821C97.067 438.827 113.294 453.703 118.795 456.786C134.777 465.746 145.945 468.974 163.652 469.753C175.113 470.258 183.652 469.068 196 465.245C206.842 461.888 222.484 452.435 231.098 444.034C232.526 442.64 235.216 440.25 237.074 438.722C240.084 436.247 261.39 415.948 282.966 395C296.478 381.88 313.179 365.885 326.819 353C334.096 346.125 342.653 338.025 345.835 335C349.016 331.975 354.973 326.35 359.073 322.5C366.598 315.434 395.863 287.794 403.415 280.62C407.695 276.554 424.272 261.192 431.361 254.722C433.637 252.645 437.188 249.974 439.25 248.788C441.313 247.602 443 246.253 443 245.791C443 245.329 444.012 244.513 445.25 243.978C446.488 243.443 448.175 242.567 449 242.031C453.144 239.341 464.108 233 464.616 233C465.169 233 466.766 232.336 475.151 228.619C477.159 227.728 479.432 227 480.201 227C480.971 227 482.028 226.597 482.55 226.105C484.334 224.425 504.907 220.188 517 219.011C528.004 217.939 545.012 218.637 557 220.652Z" fill="white"/>
<path d="M174.127 368.018C178.198 369.149 182.233 372.755 184.49 377.28C187.889 384.093 185.302 393.133 178.301 398.903C175.046 401.586 173.761 402 168.682 402C163.883 402 162.123 401.501 158.983 399.25C153.709 395.47 151.581 391.518 151.578 385.5C151.571 372.214 161.505 364.513 174.127 368.018Z" fill="white"/>
<path d="M532.671 367.584C536.087 368.267 541.721 372.908 543.65 376.627C545.601 380.388 545.375 389.491 543.25 392.769C538.997 399.327 534.511 402 527.758 402C520.852 402 516.444 399.164 512.811 392.386C507.089 381.71 515.345 367.611 527.625 367.09C528.794 367.041 531.064 367.263 532.671 367.584Z" fill="white"/>
<path d="M486.927 120.635C488.067 122.084 489 123.936 489 124.751C489 126.853 495.482 135.419 498.751 137.636C502.731 140.335 508.25 142.927 510.101 142.966C513.947 143.048 518.034 145.289 518.625 147.64C519.337 150.48 516.708 154 513.874 154C507.974 154 491 165.66 491 169.712C491 170.421 490.637 171 490.192 171C489.748 171 488.591 172.8 487.62 175C486.633 177.236 485.158 179 484.274 179C482.552 179 475.004 171.341 474.994 169.584C474.99 168.988 474.309 167.199 473.48 165.609C467.227 153.619 471.011 128.217 480.201 120.484C483.892 117.379 484.375 117.39 486.927 120.635Z" fill="white"/>
<path d="M216.673 120.868C224.774 129.085 228.22 147.377 224.315 161.434C222.241 168.901 217.848 176.293 214.606 177.77C212.312 178.815 212.02 178.569 209.383 173.356C207.816 170.259 204.132 165.567 200.992 162.668C195.632 157.719 193.183 156.555 181 153.16C179.295 152.685 178.404 151.647 178.199 149.896C177.862 147.013 178.937 145.924 184 144.018C190.151 141.702 194.463 139.612 195.821 138.288C196.548 137.58 197.486 137 197.905 137C199.562 137 205.753 129.779 207.96 125.271C212.069 116.88 212.518 116.653 216.673 120.868Z" fill="white"/>
<path d="M351.443 547.223C352.299 548.445 353 550.029 353 550.744C353 554.515 360.015 566.02 366 572.063C372.58 578.707 377.055 581.372 386.977 584.555C393.366 586.604 395.262 588.188 394.82 591.109C394.458 593.496 390.231 595.949 382 598.546C373.5 601.229 363.873 609.327 358.281 618.5C356.006 622.231 353 629.247 352.978 630.877C352.966 631.77 352.136 633.565 351.135 634.867C348.254 638.614 345.817 637.02 343.616 629.95C340.277 619.224 335.539 611.764 328.403 606C323.003 601.638 314.261 597.099 311.151 597.043C306.954 596.966 302 593.988 302 591.541C302 588.363 304.653 586.365 312.045 583.974C315.595 582.826 319.85 581.017 321.5 579.954C323.15 578.892 325.175 577.716 326 577.343C326.825 576.969 329.84 574.236 332.701 571.27C337.75 566.035 345 553.003 345 549.162C345 547.115 346.851 545 348.643 545C349.327 545 350.587 546 351.443 547.223Z" fill="white"/>
<path d="M147.489 594.168C149.145 595.721 151.063 596.993 151.75 596.995C152.438 596.998 153 597.675 153 598.5C153 599.325 153.511 600 154.135 600C154.76 600 156.222 601.026 157.385 602.281C158.548 603.535 161.75 606.101 164.5 607.983C167.25 609.865 170.079 611.973 170.786 612.667C171.494 613.362 173.406 614.718 175.036 615.681C176.666 616.643 178 617.784 178 618.216C178 618.647 178.434 619 178.965 619C180.1 619 194.939 627.867 196.728 629.613C197.403 630.273 199.316 631.415 200.978 632.15C202.64 632.886 204 633.828 204 634.244C204 634.66 204.58 635 205.289 635C205.997 635 208.342 635.9 210.5 637C212.658 638.1 215.003 639 215.711 639C216.42 639 217 639.414 217 639.921C217 640.427 218.35 641.138 220 641.5C221.65 641.862 223 642.523 223 642.968C223 643.413 224.556 644.069 226.458 644.426C228.36 644.783 231.172 645.73 232.708 646.531C234.243 647.332 235.978 647.99 236.562 647.994C237.146 647.997 239.512 648.912 241.818 650.026C244.125 651.141 247.472 652.329 249.256 652.667C251.04 653.005 252.955 653.634 253.512 654.066C254.589 654.9 264.826 657.63 271.537 658.871C273.757 659.282 276.089 659.937 276.72 660.327C277.885 661.047 279.193 661.351 296 664.804C306.448 666.951 322.372 668.671 340.631 669.623C352.861 670.262 392.096 667.745 397 666.008C398.375 665.521 401.525 664.828 404 664.469C409.762 663.634 420.909 661.076 423.5 659.995C424.6 659.537 429.514 658.18 434.42 656.982C439.326 655.783 444.501 654.341 445.92 653.777C451.153 651.696 452.635 651.148 459 648.942C462.575 647.703 465.928 646.309 466.45 645.845C466.973 645.38 468.219 645 469.219 645C470.219 645 473.568 643.65 476.66 642C479.752 640.35 482.838 639 483.518 639C484.199 639 485.315 638.325 486 637.5C486.685 636.675 488.052 636 489.039 636C490.026 636 490.983 635.663 491.167 635.25C491.35 634.837 493.525 633.463 496 632.196C498.475 630.928 501.85 629.021 503.5 627.957C505.15 626.894 507.175 625.681 508 625.262C510.807 623.836 518.499 618.503 518.833 617.75C519.017 617.337 519.62 617 520.173 617C521.02 617 529.612 610.385 538.274 603.064C538.951 602.491 540.387 601.276 542.094 599.831L543.838 598.355L546.5 596.1C552.269 591.213 552.733 591.017 558.563 591.009C563.948 591.001 564.935 591.323 567.393 593.888C570.627 597.264 571.842 603.554 570.08 607.807C569.432 609.371 567.237 612.035 565.201 613.726C563.165 615.418 559.579 618.636 557.232 620.878C551.996 625.878 533.46 640 532.132 640C531.601 640 531.017 640.364 530.833 640.808C530.345 641.992 519.492 649 518.146 649C517.516 649 517 649.45 517 650C517 650.55 516.558 651 516.018 651C515.477 651 512.215 652.694 508.768 654.764C505.32 656.834 500.475 659.488 498 660.661C481.104 668.673 475.693 671.059 469.5 673.227C465.65 674.575 460.925 676.237 459 676.921C449.128 680.429 439.831 683.294 434 684.626C430.425 685.442 424.8 686.783 421.5 687.605C418.2 688.427 412.35 689.578 408.5 690.162C404.65 690.746 401.275 691.555 401 691.96C400.725 692.365 396.225 692.998 391 693.366C385.775 693.734 377.9 694.365 373.5 694.768C354.788 696.481 303.547 694.574 298.82 691.989C297.895 691.484 294.07 690.769 290.32 690.401C286.569 690.033 283.05 689.384 282.5 688.959C281.95 688.535 279.357 687.868 276.738 687.478C274.118 687.088 271.729 686.371 271.429 685.885C271.128 685.398 269.486 685 267.779 685C264.695 685 254.984 682.533 251.873 680.96C250.978 680.507 248.616 679.831 246.623 679.457C244.63 679.083 243 678.435 243 678.017C243 677.598 241.26 676.977 239.132 676.637C237.005 676.297 233.968 675.342 232.382 674.516C230.797 673.689 228.739 673.01 227.809 673.006C226.879 673.003 225.84 672.55 225.5 672C225.16 671.45 224.156 671 223.268 671C222.38 671 217.463 668.975 212.341 666.5C207.219 664.025 202.765 662 202.443 662C202.121 662 201.182 661.325 200.357 660.5C199.532 659.675 197.941 659 196.822 659C195.455 659 194.969 658.524 195.342 657.551C195.711 656.59 195.418 656.286 194.47 656.65C193.685 656.951 190.776 655.803 188.006 654.099C185.236 652.394 182.527 651 181.985 651C181.443 651 181 650.594 181 650.098C181 649.602 179.65 648.725 178 648.15C176.35 647.575 175 646.631 175 646.052C175 645.473 174.516 645 173.925 645C172.487 645 159.544 636.586 156.178 633.462C154.705 632.096 152.713 630.728 151.75 630.422C150.787 630.116 150 629.446 150 628.933C150 628.42 149.55 628 148.999 628C148.448 628 146.251 626.2 144.116 624C141.981 621.8 139.951 620 139.605 620C139.26 620 136.17 617.328 132.738 614.063C126.655 608.274 126.5 607.998 126.5 602.949C126.5 598.185 126.807 597.506 130.352 594.442C136.297 589.303 142.199 589.209 147.489 594.168Z" fill="white"/>
</svg>
