<svg width="22" height="23" viewBox="0 0 22 23" fill="none" xmlns="http://www.w3.org/2000/svg">
<g id="Search">
<path id="Vector" d="M14.2083 13.3333H13.4842L13.2275 13.0858C14.1258 12.0408 14.6667 10.6842 14.6667 9.20833C14.6667 5.9175 11.9992 3.25 8.70833 3.25C5.4175 3.25 2.75 5.9175 2.75 9.20833C2.75 12.4992 5.4175 15.1667 8.70833 15.1667C10.1842 15.1667 11.5408 14.6258 12.5858 13.7275L12.8333 13.9842V14.7083L17.4167 19.2825L18.7825 17.9167L14.2083 13.3333ZM8.70833 13.3333C6.42583 13.3333 4.58333 11.4908 4.58333 9.20833C4.58333 6.92583 6.42583 5.08333 8.70833 5.08333C10.9908 5.08333 12.8333 6.92583 12.8333 9.20833C12.8333 11.4908 10.9908 13.3333 8.70833 13.3333Z" fill="#0D6F50"/>
</g>
</svg>
