<svg width="37" height="36" viewBox="0 0 37 36" fill="none" xmlns="http://www.w3.org/2000/svg">
<path d="M18.5 36C23.4065 36 28.1121 34.1036 31.5815 30.7279C35.0509 27.3523 37 22.7739 37 18C37 13.2261 35.0509 8.64773 31.5815 5.27208C28.1121 1.89642 23.4065 0 18.5 0C13.5935 0 8.88795 1.89642 5.41852 5.27208C1.9491 8.64773 0 13.2261 0 18C0 22.7739 1.9491 27.3523 5.41852 30.7279C8.88795 34.1036 13.5935 36 18.5 36Z" fill="#FFD43B"/>
<path d="M32.7188 18C32.7188 14.1212 31.2207 10.4013 28.5542 7.65856C25.8876 4.91584 22.271 3.375 18.5 3.375C14.729 3.375 11.1124 4.91584 8.44583 7.65856C5.77929 10.4013 4.28125 14.1212 4.28125 18C4.28125 21.8788 5.77929 25.5987 8.44583 28.3414C11.1124 31.0842 14.729 32.625 18.5 32.625C22.271 32.625 25.8876 31.0842 28.5542 28.3414C31.2207 25.5987 32.7188 21.8788 32.7188 18ZM1 18C1 13.2261 2.84374 8.64773 6.12563 5.27208C9.40752 1.89642 13.8587 0 18.5 0C23.1413 0 27.5925 1.89642 30.8744 5.27208C34.1563 8.64773 36 13.2261 36 18C36 22.7739 34.1563 27.3523 30.8744 30.7279C27.5925 34.1036 23.1413 36 18.5 36C13.8587 36 9.40752 34.1036 6.12563 30.7279C2.84374 27.3523 1 22.7739 1 18Z" fill="black"/>
<path d="M18.6607 3C19.1718 3 19.6384 3.30469 19.8607 3.79102L23.6718 12.0703L32.1829 13.3945C32.6829 13.4707 33.0995 13.8398 33.2551 14.3496C33.4107 14.8594 33.2829 15.4102 32.9273 15.7852L26.7551 22.2422L28.2107 31.3594C28.294 31.8867 28.0884 32.4199 27.6718 32.7363C27.2551 33.0527 26.7107 33.0879 26.2662 32.8359L18.6551 28.5469L11.0551 32.8301C10.6051 33.082 10.0607 33.0469 9.64955 32.7305C9.23844 32.4141 9.02732 31.8809 9.11066 31.3535L10.5662 22.2363L4.39399 15.7852C4.03288 15.4102 3.91066 14.8535 4.06621 14.3496C4.22177 13.8457 4.63844 13.4766 5.13844 13.3945L13.6495 12.0703L17.4607 3.79102C17.6884 3.30469 18.1495 3 18.6607 3ZM18.6607 7.62891L15.744 13.9688C15.5495 14.3848 15.1773 14.6777 14.7384 14.748L8.16621 15.7676L12.9384 20.7539C13.244 21.0762 13.3884 21.5332 13.3162 21.9844L12.1884 28.998L18.0329 25.7051C18.4273 25.4824 18.8995 25.4824 19.2884 25.7051L25.1329 28.998L24.0107 21.9902C23.9384 21.5391 24.0773 21.082 24.3884 20.7598L29.1607 15.7734L22.5884 14.748C22.1551 14.6777 21.7773 14.3906 21.5829 13.9688L18.6607 7.62891Z" fill="black"/>
</svg>
