<svg width="1948" height="626" viewBox="0 0 1948 626" fill="none" xmlns="http://www.w3.org/2000/svg">
<path fill-rule="evenodd" clip-rule="evenodd" d="M45.16 498.944C63.9333 517.376 89.0213 526.592 120.424 526.592C151.827 526.592 176.915 517.376 195.688 498.944C214.803 480.512 224.36 455.936 224.36 425.216V430.216C224.36 460.936 214.803 485.512 195.688 503.944C176.915 522.376 151.827 531.592 120.424 531.592C89.0213 531.592 63.9333 522.376 45.16 503.944C26.3867 485.512 17 460.936 17 430.216V425.216C17 455.936 26.3867 480.512 45.16 498.944ZM17 266.376C17 235.656 26.3867 211.08 45.16 192.648C63.9333 174.216 89.0213 165 120.424 165C151.827 165 176.915 174.216 195.688 192.648C214.803 211.08 224.36 235.656 224.36 266.376V261.376C224.36 230.656 214.803 206.08 195.688 187.648C176.915 169.216 151.827 160 120.424 160C89.0213 160 63.9333 169.216 45.16 187.648C26.3867 206.08 17 230.656 17 261.376V266.376ZM143.464 454.912C137.661 461.397 129.981 464.64 120.424 464.64C110.867 464.64 103.187 461.397 97.384 454.912C91.9227 448.085 89.192 439.211 89.192 428.288V433.288C89.192 444.211 91.9227 453.085 97.384 459.912C103.187 466.397 110.867 469.64 120.424 469.64C129.981 469.64 137.661 466.397 143.464 459.912C149.267 453.085 152.168 444.211 152.168 433.288V428.288C152.168 439.211 149.267 448.085 143.464 454.912ZM152.168 263.304C152.168 252.381 149.267 243.677 143.464 237.192C137.661 230.365 129.981 226.952 120.424 226.952C110.867 226.952 103.187 230.365 97.384 237.192C91.9227 243.677 89.192 252.381 89.192 263.304V258.304C89.192 247.381 91.9227 238.677 97.384 232.192C103.187 225.365 110.867 221.952 120.424 221.952C129.981 221.952 137.661 225.365 143.464 232.192C149.267 238.677 152.168 247.381 152.168 258.304V263.304ZM286.648 499.456C305.421 517.547 330.168 526.592 360.888 526.592C391.608 526.592 416.355 517.547 435.128 499.456C453.901 481.024 463.288 456.448 463.288 425.728V430.728C463.288 461.448 453.901 486.024 435.128 504.456C416.355 522.547 391.608 531.592 360.888 531.592C330.168 531.592 305.421 522.547 286.648 504.456C268.216 486.024 259 461.448 259 430.728V425.728C259 456.448 268.216 481.024 286.648 499.456ZM259 264.84C259 234.461 268.216 210.227 286.648 192.136C305.421 174.045 330.168 165 360.888 165C391.949 165 416.696 174.045 435.128 192.136C453.901 210.227 463.288 234.461 463.288 264.84V259.84C463.288 229.461 453.901 205.227 435.128 187.136C416.696 169.045 391.949 160 360.888 160C330.168 160 305.421 169.045 286.648 187.136C268.216 205.227 259 229.461 259 259.84V264.84ZM463.288 265.472C463.288 267.179 462.605 268.715 461.24 270.08C460.216 271.104 458.851 271.616 457.144 271.616L397.24 274.176C393.144 274.176 391.096 272.299 391.096 268.544V273.544C391.096 277.299 393.144 279.176 397.24 279.176L457.144 276.616C458.851 276.616 460.216 276.104 461.24 275.08C462.605 273.715 463.288 272.179 463.288 270.472V265.472ZM391.096 260.232V255.232C391.096 245.333 388.365 237.312 382.904 231.168C377.443 225.024 370.104 221.952 360.888 221.952C352.013 221.952 344.845 225.024 339.384 231.168C333.923 237.312 331.192 245.333 331.192 255.232V260.232C331.192 250.333 333.923 242.312 339.384 236.168C344.845 230.024 352.013 226.952 360.888 226.952C370.104 226.952 377.443 230.024 382.904 236.168C388.365 242.312 391.096 250.333 391.096 260.232ZM331.192 431.872V436.872C331.192 446.771 333.923 454.792 339.384 460.936C344.845 466.739 352.013 469.64 360.888 469.64C370.104 469.64 377.443 466.739 382.904 460.936C388.365 454.792 391.096 446.771 391.096 436.872V431.872C391.096 441.771 388.365 449.792 382.904 455.936C377.443 461.739 370.104 464.64 360.888 464.64C352.013 464.64 344.845 461.739 339.384 455.936C333.923 449.792 331.192 441.771 331.192 431.872ZM391.096 423.048C391.096 421.341 391.608 419.976 392.632 418.952C393.997 417.587 395.533 416.904 397.24 416.904L457.144 419.464C458.851 419.464 460.216 420.147 461.24 421.512C462.605 422.536 463.288 423.901 463.288 425.608V420.608C463.288 418.901 462.605 417.536 461.24 416.512C460.216 415.147 458.851 414.464 457.144 414.464L397.24 411.904C395.533 411.904 393.997 412.587 392.632 413.952C391.608 414.976 391.096 416.341 391.096 418.048V423.048ZM631.668 166.144C630.644 167.168 630.132 168.533 630.132 170.24V175.24C630.132 173.533 630.644 172.168 631.668 171.144C633.033 169.779 634.569 169.096 636.276 169.096H696.18C697.887 169.096 699.252 169.779 700.276 171.144C701.641 172.168 702.324 173.533 702.324 175.24V170.24C702.324 168.533 701.641 167.168 700.276 166.144C699.252 164.779 697.887 164.096 696.18 164.096H636.276C634.569 164.096 633.033 164.779 631.668 166.144ZM702.324 516.352C702.324 518.059 701.641 519.595 700.276 520.96C699.252 521.984 697.887 522.496 696.18 522.496H636.276C634.569 522.496 633.033 521.984 631.668 520.96C630.644 519.595 630.132 518.059 630.132 516.352V521.352C630.132 523.059 630.644 524.595 631.668 525.96C633.033 526.984 634.569 527.496 636.276 527.496H696.18C697.887 527.496 699.252 526.984 700.276 525.96C701.641 524.595 702.324 523.059 702.324 521.352V516.352ZM630.132 381.576V376.576C630.132 374.869 629.279 374.016 627.572 374.016H576.372C574.665 374.016 573.812 374.869 573.812 376.576V381.576C573.812 379.869 574.665 379.016 576.372 379.016H627.572C629.279 379.016 630.132 379.869 630.132 381.576ZM573.812 516.352C573.812 518.059 573.129 519.595 571.764 520.96C570.74 521.984 569.375 522.496 567.668 522.496H507.764C506.057 522.496 504.521 521.984 503.156 520.96C502.132 519.595 501.62 518.059 501.62 516.352V521.352C501.62 523.059 502.132 524.595 503.156 525.96C504.521 526.984 506.057 527.496 507.764 527.496H567.668C569.375 527.496 570.74 526.984 571.764 525.96C573.129 524.595 573.812 523.059 573.812 521.352V516.352ZM501.62 175.24C501.62 173.533 502.132 172.168 503.156 171.144C504.521 169.779 506.057 169.096 507.764 169.096H567.668C569.375 169.096 570.74 169.779 571.764 171.144C573.129 172.168 573.812 173.533 573.812 175.24V170.24C573.812 168.533 573.129 167.168 571.764 166.144C570.74 164.779 569.375 164.096 567.668 164.096H507.764C506.057 164.096 504.521 164.779 503.156 166.144C502.132 167.168 501.62 168.533 501.62 170.24V175.24ZM573.812 309.504V314.504C573.812 316.211 574.665 317.064 576.372 317.064H627.572C629.279 317.064 630.132 316.211 630.132 314.504V309.504C630.132 311.211 629.279 312.064 627.572 312.064H576.372C574.665 312.064 573.812 311.211 573.812 309.504ZM770.66 498.944C789.433 517.376 814.521 526.592 845.924 526.592C877.327 526.592 902.415 517.376 921.188 498.944C940.303 480.512 949.86 455.936 949.86 425.216V430.216C949.86 460.936 940.303 485.512 921.188 503.944C902.415 522.376 877.327 531.592 845.924 531.592C814.521 531.592 789.433 522.376 770.66 503.944C751.887 485.512 742.5 460.936 742.5 430.216V425.216C742.5 455.936 751.887 480.512 770.66 498.944ZM742.5 266.376C742.5 235.656 751.887 211.08 770.66 192.648C789.433 174.216 814.521 165 845.924 165C877.327 165 902.415 174.216 921.188 192.648C940.303 211.08 949.86 235.656 949.86 266.376V261.376C949.86 230.656 940.303 206.08 921.188 187.648C902.415 169.216 877.327 160 845.924 160C814.521 160 789.433 169.216 770.66 187.648C751.887 206.08 742.5 230.656 742.5 261.376V266.376ZM868.964 454.912C863.161 461.397 855.481 464.64 845.924 464.64C836.367 464.64 828.687 461.397 822.884 454.912C817.423 448.085 814.692 439.211 814.692 428.288V433.288C814.692 444.211 817.423 453.085 822.884 459.912C828.687 466.397 836.367 469.64 845.924 469.64C855.481 469.64 863.161 466.397 868.964 459.912C874.767 453.085 877.668 444.211 877.668 433.288V428.288C877.668 439.211 874.767 448.085 868.964 454.912ZM877.668 263.304C877.668 252.381 874.767 243.677 868.964 237.192C863.161 230.365 855.481 226.952 845.924 226.952C836.367 226.952 828.687 230.365 822.884 237.192C817.423 243.677 814.692 252.381 814.692 263.304V258.304C814.692 247.381 817.423 238.677 822.884 232.192C828.687 225.365 836.367 221.952 845.924 221.952C855.481 221.952 863.161 225.365 868.964 232.192C874.767 238.677 877.668 247.381 877.668 258.304V263.304ZM1012.15 499.456C1030.92 517.547 1055.67 526.592 1086.39 526.592C1117.11 526.592 1141.85 517.547 1160.63 499.456C1179.4 481.024 1188.79 456.448 1188.79 425.728V430.728C1188.79 461.448 1179.4 486.024 1160.63 504.456C1141.85 522.547 1117.11 531.592 1086.39 531.592C1055.67 531.592 1030.92 522.547 1012.15 504.456C993.716 486.024 984.5 461.448 984.5 430.728V425.728C984.5 456.448 993.716 481.024 1012.15 499.456ZM984.5 264.84C984.5 234.461 993.716 210.227 1012.15 192.136C1030.92 174.045 1055.67 165 1086.39 165C1117.45 165 1142.2 174.045 1160.63 192.136C1179.4 210.227 1188.79 234.461 1188.79 264.84V259.84C1188.79 229.461 1179.4 205.227 1160.63 187.136C1142.2 169.045 1117.45 160 1086.39 160C1055.67 160 1030.92 169.045 1012.15 187.136C993.716 205.227 984.5 229.461 984.5 259.84V264.84ZM1188.79 265.472C1188.79 267.179 1188.11 268.715 1186.74 270.08C1185.72 271.104 1184.35 271.616 1182.64 271.616L1122.74 274.176C1118.64 274.176 1116.6 272.299 1116.6 268.544V273.544C1116.6 277.299 1118.64 279.176 1122.74 279.176L1182.64 276.616C1184.35 276.616 1185.72 276.104 1186.74 275.08C1188.11 273.715 1188.79 272.179 1188.79 270.472V265.472ZM1116.6 260.232V255.232C1116.6 245.333 1113.87 237.312 1108.4 231.168C1102.94 225.024 1095.6 221.952 1086.39 221.952C1077.51 221.952 1070.35 225.024 1064.88 231.168C1059.42 237.312 1056.69 245.333 1056.69 255.232V260.232C1056.69 250.333 1059.42 242.312 1064.88 236.168C1070.35 230.024 1077.51 226.952 1086.39 226.952C1095.6 226.952 1102.94 230.024 1108.4 236.168C1113.87 242.312 1116.6 250.333 1116.6 260.232ZM1056.69 431.872V436.872C1056.69 446.771 1059.42 454.792 1064.88 460.936C1070.35 466.739 1077.51 469.64 1086.39 469.64C1095.6 469.64 1102.94 466.739 1108.4 460.936C1113.87 454.792 1116.6 446.771 1116.6 436.872V431.872C1116.6 441.771 1113.87 449.792 1108.4 455.936C1102.94 461.739 1095.6 464.64 1086.39 464.64C1077.51 464.64 1070.35 461.739 1064.88 455.936C1059.42 449.792 1056.69 441.771 1056.69 431.872ZM1116.6 423.048C1116.6 421.341 1117.11 419.976 1118.13 418.952C1119.5 417.587 1121.03 416.904 1122.74 416.904L1182.64 419.464C1184.35 419.464 1185.72 420.147 1186.74 421.512C1188.11 422.536 1188.79 423.901 1188.79 425.608V420.608C1188.79 418.901 1188.11 417.536 1186.74 416.512C1185.72 415.147 1184.35 414.464 1182.64 414.464L1122.74 411.904C1121.03 411.904 1119.5 412.587 1118.13 413.952C1117.11 414.976 1116.6 416.341 1116.6 418.048V423.048ZM1365.99 516.864C1366.33 520.619 1368.55 522.496 1372.65 522.496H1434.09C1436.61 522.496 1438.29 521.801 1439.12 520.412L1439.21 520.84L1439.72 522.888C1439.72 525.96 1437.84 527.496 1434.09 527.496H1372.65C1368.55 527.496 1366.33 525.619 1365.99 521.864L1357.8 472.712C1357.8 471.005 1356.78 470.152 1354.73 470.152H1289.7C1287.66 470.152 1286.63 471.005 1286.63 472.712L1278.44 521.864C1278.1 525.619 1275.88 527.496 1271.78 527.496H1211.88C1207.44 527.496 1205.74 525.277 1206.76 520.84L1206.9 520.217C1207.62 521.736 1209.28 522.496 1211.88 522.496H1271.78C1275.88 522.496 1278.1 520.619 1278.44 516.864L1286.63 467.712C1286.63 466.005 1287.66 465.152 1289.7 465.152H1354.73C1356.78 465.152 1357.8 466.005 1357.8 467.712L1365.99 516.864ZM1206.9 520.217C1206.38 519.14 1206.34 517.681 1206.76 515.84L1282.02 169.728C1282.71 165.973 1284.93 164.096 1288.68 164.096H1357.8C1361.55 164.096 1363.77 165.973 1364.46 169.728L1439.21 515.84L1439.72 517.888C1439.72 518.894 1439.52 519.736 1439.12 520.412L1364.46 174.728C1363.77 170.973 1361.55 169.096 1357.8 169.096H1288.68C1284.93 169.096 1282.71 170.973 1282.02 174.728L1206.9 520.217ZM1297.38 408.699C1297.04 408.273 1296.87 407.634 1296.87 406.784L1319.91 267.008C1320.25 265.984 1320.77 265.472 1321.45 265.472C1322.13 265.472 1322.64 265.984 1322.98 267.008L1347.05 406.784C1347.25 407.807 1347.09 408.524 1346.56 408.934L1322.98 272.008C1322.64 270.984 1322.13 270.472 1321.45 270.472C1320.77 270.472 1320.25 270.984 1319.91 272.008L1297.38 408.699ZM1297.38 408.699L1296.87 411.784C1296.87 413.491 1297.55 414.344 1298.92 414.344H1345C1346.71 414.344 1347.39 413.491 1347.05 411.784L1346.56 408.934C1346.2 409.207 1345.68 409.344 1345 409.344H1298.92C1298.23 409.344 1297.72 409.129 1297.38 408.699ZM1496.06 514.816C1511.07 522.667 1528.48 526.592 1548.28 526.592C1578.32 526.592 1602.55 517.717 1620.98 499.968C1638.89 482.728 1648.09 459.693 1648.61 430.861C1648.62 431.664 1648.63 432.473 1648.63 433.288C1648.63 463.325 1639.42 487.219 1620.98 504.968C1602.55 522.717 1578.32 531.592 1548.28 531.592C1528.48 531.592 1511.07 527.667 1496.06 519.816C1481.04 511.965 1469.43 501.043 1461.24 487.048C1453.05 472.712 1448.95 456.328 1448.95 437.896V432.896C1448.95 451.328 1453.05 467.712 1461.24 482.048C1469.43 496.043 1481.04 506.965 1496.06 514.816ZM1448.95 423.048C1448.95 421.341 1449.46 419.976 1450.49 418.952C1451.85 417.587 1453.39 416.904 1455.1 416.904H1513.98C1515.68 416.904 1517.05 417.587 1518.07 418.952C1519.44 419.976 1520.12 421.341 1520.12 423.048V418.048C1520.12 416.341 1519.44 414.976 1518.07 413.952C1517.05 412.587 1515.68 411.904 1513.98 411.904H1455.1C1453.39 411.904 1451.85 412.587 1450.49 413.952C1449.46 414.976 1448.95 416.341 1448.95 418.048V423.048ZM1520.12 429.312V434.312C1520.12 444.893 1522.85 453.427 1528.31 459.912C1533.77 466.397 1540.6 469.64 1548.79 469.64C1556.98 469.64 1563.81 466.568 1569.27 460.424C1574.73 454.28 1577.46 446.259 1577.46 436.36C1577.46 435.547 1577.44 434.744 1577.4 433.951C1577.44 433.102 1577.46 432.238 1577.46 431.36C1577.46 421.12 1574.05 412.416 1567.22 405.248C1560.4 397.739 1547.09 386.816 1527.29 372.48C1510.22 360.192 1496.4 349.269 1485.82 339.712C1475.23 330.155 1466.19 318.379 1458.68 304.384C1451.51 291.021 1447.76 275.635 1447.44 258.227C1447.95 230.385 1456.99 208.014 1474.55 191.112C1492.64 173.704 1516.54 165 1546.23 165C1576.27 165 1600.33 174.045 1618.42 192.136C1636.86 210.227 1646.07 233.949 1646.07 263.304V258.304C1646.07 228.949 1636.86 205.227 1618.42 187.136C1600.33 169.045 1576.27 160 1546.23 160C1516.54 160 1492.64 168.704 1474.55 186.112C1456.46 203.52 1447.42 226.731 1447.42 255.744C1447.42 256.576 1447.42 257.404 1447.44 258.227C1447.42 259.061 1447.42 259.9 1447.42 260.744C1447.42 279.176 1451.17 295.389 1458.68 309.384C1466.19 323.379 1475.23 335.155 1485.82 344.712C1496.4 354.269 1510.22 365.192 1527.29 377.48C1547.09 391.816 1560.4 402.739 1567.22 410.248C1573.51 416.847 1576.9 424.748 1577.4 433.951C1576.96 442.667 1574.25 449.825 1569.27 455.424C1563.81 461.568 1556.98 464.64 1548.79 464.64C1540.6 464.64 1533.77 461.397 1528.31 454.912C1522.85 448.427 1520.12 439.893 1520.12 429.312ZM1646.07 270.592C1646.07 272.299 1645.39 273.835 1644.02 275.2C1643 276.224 1641.63 276.736 1639.93 276.736H1581.05C1579.34 276.736 1577.81 276.224 1576.44 275.2C1575.42 273.835 1574.9 272.299 1574.9 270.592V275.592C1574.9 277.299 1575.42 278.835 1576.44 280.2C1577.81 281.224 1579.34 281.736 1581.05 281.736H1639.93C1641.63 281.736 1643 281.224 1644.02 280.2C1645.39 278.835 1646.07 277.299 1646.07 275.592V270.592ZM1574.9 261.768C1574.9 251.187 1572.17 242.824 1566.71 236.68C1561.59 230.195 1554.77 226.952 1546.23 226.952C1538.04 226.952 1531.38 230.024 1526.26 236.168C1521.58 241.472 1519.04 248.772 1518.64 258.069C1518.6 257.301 1518.58 256.526 1518.58 255.744C1518.58 245.163 1521.14 236.971 1526.26 231.168C1531.38 225.024 1538.04 221.952 1546.23 221.952C1554.77 221.952 1561.59 225.195 1566.71 231.68C1572.17 237.824 1574.9 246.187 1574.9 256.768V261.768ZM1528.31 282.88C1522.32 275.629 1519.1 267.358 1518.64 258.069C1518.6 258.943 1518.58 259.835 1518.58 260.744C1518.58 270.984 1521.83 280.029 1528.31 287.88C1534.8 295.731 1547.6 306.653 1566.71 320.648C1587.87 336.349 1603.75 349.149 1614.33 359.048C1625.25 368.605 1633.61 379.357 1639.42 391.304C1645.25 402.332 1648.32 415.518 1648.61 430.861C1648.62 430.008 1648.63 429.151 1648.63 428.288C1648.63 411.904 1645.56 397.909 1639.42 386.304C1633.61 374.357 1625.25 363.605 1614.33 354.048C1603.75 344.149 1587.87 331.349 1566.71 315.648C1547.6 301.653 1534.8 290.731 1528.31 282.88ZM1883.37 166.144C1882.35 164.779 1880.98 164.096 1879.28 164.096H1676.52C1674.82 164.096 1673.28 164.779 1671.92 166.144C1670.89 167.168 1670.38 168.533 1670.38 170.24V175.24C1670.38 173.533 1670.89 172.168 1671.92 171.144C1673.28 169.779 1674.82 169.096 1676.52 169.096H1879.28C1880.98 169.096 1882.35 169.779 1883.37 171.144C1884.74 172.168 1885.42 173.533 1885.42 175.24V170.24C1885.42 168.533 1884.74 167.168 1883.37 166.144ZM1885.42 219.904C1885.42 221.611 1884.74 223.147 1883.37 224.512C1882.35 225.536 1880.98 226.048 1879.28 226.048H1815.28C1813.57 226.048 1812.72 226.901 1812.72 228.608V233.608C1812.72 231.901 1813.57 231.048 1815.28 231.048H1879.28C1880.98 231.048 1882.35 230.536 1883.37 229.512C1884.74 228.147 1885.42 226.611 1885.42 224.904V219.904ZM1812.72 516.352C1812.72 518.059 1812.03 519.595 1810.67 520.96C1809.64 521.984 1808.28 522.496 1806.57 522.496H1746.67C1744.96 522.496 1743.43 521.984 1742.06 520.96C1741.04 519.595 1740.52 518.059 1740.52 516.352V521.352C1740.52 523.059 1741.04 524.595 1742.06 525.96C1743.43 526.984 1744.96 527.496 1746.67 527.496H1806.57C1808.28 527.496 1809.64 526.984 1810.67 525.96C1812.03 524.595 1812.72 523.059 1812.72 521.352V516.352ZM1740.52 233.608V228.608C1740.52 226.901 1739.67 226.048 1737.96 226.048H1676.52C1674.82 226.048 1673.28 225.536 1671.92 224.512C1670.89 223.147 1670.38 221.611 1670.38 219.904V224.904C1670.38 226.611 1670.89 228.147 1671.92 229.512C1673.28 230.536 1674.82 231.048 1676.52 231.048H1737.96C1739.67 231.048 1740.52 231.901 1740.52 233.608Z" fill="#CCCCCC"/>
<path d="M120.832 516.096C89.4293 516.096 64.3413 506.88 45.568 488.448C26.7947 470.016 17.408 445.44 17.408 414.72V250.88C17.408 220.16 26.7947 195.584 45.568 177.152C64.3413 158.72 89.4293 149.504 120.832 149.504C152.235 149.504 177.323 158.72 196.096 177.152C215.211 195.584 224.768 220.16 224.768 250.88V414.72C224.768 445.44 215.211 470.016 196.096 488.448C177.323 506.88 152.235 516.096 120.832 516.096ZM120.832 454.144C130.389 454.144 138.069 450.901 143.872 444.416C149.675 437.589 152.576 428.715 152.576 417.792V247.808C152.576 236.885 149.675 228.181 143.872 221.696C138.069 214.869 130.389 211.456 120.832 211.456C111.275 211.456 103.595 214.869 97.792 221.696C92.3307 228.181 89.6 236.885 89.6 247.808V417.792C89.6 428.715 92.3307 437.589 97.792 444.416C103.595 450.901 111.275 454.144 120.832 454.144ZM361.296 516.096C330.576 516.096 305.829 507.051 287.056 488.96C268.624 470.528 259.408 445.952 259.408 415.232V249.344C259.408 218.965 268.624 194.731 287.056 176.64C305.829 158.549 330.576 149.504 361.296 149.504C392.357 149.504 417.104 158.549 435.536 176.64C454.309 194.731 463.696 218.965 463.696 249.344V254.976C463.696 256.683 463.013 258.219 461.648 259.584C460.624 260.608 459.259 261.12 457.552 261.12L397.648 263.68C393.552 263.68 391.504 261.803 391.504 258.048V244.736C391.504 234.837 388.773 226.816 383.312 220.672C377.851 214.528 370.512 211.456 361.296 211.456C352.421 211.456 345.253 214.528 339.792 220.672C334.331 226.816 331.6 234.837 331.6 244.736V421.376C331.6 431.275 334.331 439.296 339.792 445.44C345.253 451.243 352.421 454.144 361.296 454.144C370.512 454.144 377.851 451.243 383.312 445.44C388.773 439.296 391.504 431.275 391.504 421.376V407.552C391.504 405.845 392.016 404.48 393.04 403.456C394.405 402.091 395.941 401.408 397.648 401.408L457.552 403.968C459.259 403.968 460.624 404.651 461.648 406.016C463.013 407.04 463.696 408.405 463.696 410.112V415.232C463.696 445.952 454.309 470.528 435.536 488.96C416.763 507.051 392.016 516.096 361.296 516.096ZM630.54 159.744C630.54 158.037 631.052 156.672 632.076 155.648C633.441 154.283 634.977 153.6 636.684 153.6H696.588C698.295 153.6 699.66 154.283 700.684 155.648C702.049 156.672 702.732 158.037 702.732 159.744V505.856C702.732 507.563 702.049 509.099 700.684 510.464C699.66 511.488 698.295 512 696.588 512H636.684C634.977 512 633.441 511.488 632.076 510.464C631.052 509.099 630.54 507.563 630.54 505.856V366.08C630.54 364.373 629.687 363.52 627.98 363.52H576.78C575.073 363.52 574.22 364.373 574.22 366.08V505.856C574.22 507.563 573.537 509.099 572.172 510.464C571.148 511.488 569.783 512 568.076 512H508.172C506.465 512 504.929 511.488 503.564 510.464C502.54 509.099 502.028 507.563 502.028 505.856V159.744C502.028 158.037 502.54 156.672 503.564 155.648C504.929 154.283 506.465 153.6 508.172 153.6H568.076C569.783 153.6 571.148 154.283 572.172 155.648C573.537 156.672 574.22 158.037 574.22 159.744V299.008C574.22 300.715 575.073 301.568 576.78 301.568H627.98C629.687 301.568 630.54 300.715 630.54 299.008V159.744ZM846.332 516.096C814.929 516.096 789.841 506.88 771.068 488.448C752.295 470.016 742.908 445.44 742.908 414.72V250.88C742.908 220.16 752.295 195.584 771.068 177.152C789.841 158.72 814.929 149.504 846.332 149.504C877.735 149.504 902.823 158.72 921.596 177.152C940.711 195.584 950.268 220.16 950.268 250.88V414.72C950.268 445.44 940.711 470.016 921.596 488.448C902.823 506.88 877.735 516.096 846.332 516.096ZM846.332 454.144C855.889 454.144 863.569 450.901 869.372 444.416C875.175 437.589 878.076 428.715 878.076 417.792V247.808C878.076 236.885 875.175 228.181 869.372 221.696C863.569 214.869 855.889 211.456 846.332 211.456C836.775 211.456 829.095 214.869 823.292 221.696C817.831 228.181 815.1 236.885 815.1 247.808V417.792C815.1 428.715 817.831 437.589 823.292 444.416C829.095 450.901 836.775 454.144 846.332 454.144Z" fill="white"/>
<path d="M1086.8 516.096C1056.08 516.096 1031.33 507.051 1012.56 488.96C994.124 470.528 984.908 445.952 984.908 415.232V249.344C984.908 218.965 994.124 194.731 1012.56 176.64C1031.33 158.549 1056.08 149.504 1086.8 149.504C1117.86 149.504 1142.6 158.549 1161.04 176.64C1179.81 194.731 1189.2 218.965 1189.2 249.344V254.976C1189.2 256.683 1188.51 258.219 1187.15 259.584C1186.12 260.608 1184.76 261.12 1183.05 261.12L1123.15 263.68C1119.05 263.68 1117 261.803 1117 258.048V244.736C1117 234.837 1114.27 226.816 1108.81 220.672C1103.35 214.528 1096.01 211.456 1086.8 211.456C1077.92 211.456 1070.75 214.528 1065.29 220.672C1059.83 226.816 1057.1 234.837 1057.1 244.736V421.376C1057.1 431.275 1059.83 439.296 1065.29 445.44C1070.75 451.243 1077.92 454.144 1086.8 454.144C1096.01 454.144 1103.35 451.243 1108.81 445.44C1114.27 439.296 1117 431.275 1117 421.376V407.552C1117 405.845 1117.52 404.48 1118.54 403.456C1119.91 402.091 1121.44 401.408 1123.15 401.408L1183.05 403.968C1184.76 403.968 1186.12 404.651 1187.15 406.016C1188.51 407.04 1189.2 408.405 1189.2 410.112V415.232C1189.2 445.952 1179.81 470.528 1161.04 488.96C1142.26 507.051 1117.52 516.096 1086.8 516.096ZM1373.06 512C1368.96 512 1366.74 510.123 1366.4 506.368L1358.21 457.216C1358.21 455.509 1357.18 454.656 1355.14 454.656H1290.11C1288.06 454.656 1287.04 455.509 1287.04 457.216L1278.85 506.368C1278.51 510.123 1276.29 512 1272.19 512H1212.29C1207.85 512 1206.14 509.781 1207.17 505.344L1282.43 159.232C1283.11 155.477 1285.33 153.6 1289.09 153.6H1358.21C1361.96 153.6 1364.18 155.477 1364.86 159.232L1439.62 505.344L1440.13 507.392C1440.13 510.464 1438.25 512 1434.5 512H1373.06ZM1297.28 396.288C1297.28 397.995 1297.96 398.848 1299.33 398.848H1345.41C1347.11 398.848 1347.8 397.995 1347.46 396.288L1323.39 256.512C1323.05 255.488 1322.54 254.976 1321.86 254.976C1321.17 254.976 1320.66 255.488 1320.32 256.512L1297.28 396.288ZM1548.69 516.096C1528.89 516.096 1511.48 512.171 1496.46 504.32C1481.45 496.469 1469.84 485.547 1461.65 471.552C1453.46 457.216 1449.36 440.832 1449.36 422.4V407.552C1449.36 405.845 1449.87 404.48 1450.9 403.456C1452.26 402.091 1453.8 401.408 1455.5 401.408H1514.38C1516.09 401.408 1517.46 402.091 1518.48 403.456C1519.85 404.48 1520.53 405.845 1520.53 407.552V418.816C1520.53 429.397 1523.26 437.931 1528.72 444.416C1534.18 450.901 1541.01 454.144 1549.2 454.144C1557.39 454.144 1564.22 451.072 1569.68 444.928C1575.14 438.784 1577.87 430.763 1577.87 420.864C1577.87 410.624 1574.46 401.92 1567.63 394.752C1560.81 387.243 1547.49 376.32 1527.7 361.984C1510.63 349.696 1496.81 338.773 1486.22 329.216C1475.64 319.659 1466.6 307.883 1459.09 293.888C1451.58 279.893 1447.82 263.68 1447.82 245.248C1447.82 216.235 1456.87 193.024 1474.96 175.616C1493.05 158.208 1516.94 149.504 1546.64 149.504C1576.68 149.504 1600.74 158.549 1618.83 176.64C1637.26 194.731 1646.48 218.453 1646.48 247.808V260.096C1646.48 261.803 1645.8 263.339 1644.43 264.704C1643.41 265.728 1642.04 266.24 1640.34 266.24H1581.46C1579.75 266.24 1578.21 265.728 1576.85 264.704C1575.82 263.339 1575.31 261.803 1575.31 260.096V246.272C1575.31 235.691 1572.58 227.328 1567.12 221.184C1562 214.699 1555.17 211.456 1546.64 211.456C1538.45 211.456 1531.79 214.528 1526.67 220.672C1521.55 226.475 1518.99 234.667 1518.99 245.248C1518.99 255.488 1522.23 264.533 1528.72 272.384C1535.21 280.235 1548.01 291.157 1567.12 305.152C1588.28 320.853 1604.15 333.653 1614.74 343.552C1625.66 353.109 1634.02 363.861 1639.82 375.808C1645.97 387.413 1649.04 401.408 1649.04 417.792C1649.04 447.829 1639.82 471.723 1621.39 489.472C1602.96 507.221 1578.73 516.096 1548.69 516.096ZM1879.68 153.6C1881.39 153.6 1882.76 154.283 1883.78 155.648C1885.15 156.672 1885.83 158.037 1885.83 159.744V209.408C1885.83 211.115 1885.15 212.651 1883.78 214.016C1882.76 215.04 1881.39 215.552 1879.68 215.552H1815.68C1813.98 215.552 1813.12 216.405 1813.12 218.112V505.856C1813.12 507.563 1812.44 509.099 1811.08 510.464C1810.05 511.488 1808.69 512 1806.98 512H1747.08C1745.37 512 1743.83 511.488 1742.47 510.464C1741.44 509.099 1740.93 507.563 1740.93 505.856V218.112C1740.93 216.405 1740.08 215.552 1738.37 215.552H1676.93C1675.23 215.552 1673.69 215.04 1672.32 214.016C1671.3 212.651 1670.79 211.115 1670.79 209.408V159.744C1670.79 158.037 1671.3 156.672 1672.32 155.648C1673.69 154.283 1675.23 153.6 1676.93 153.6H1879.68Z" fill="black"/>
<path d="M120.832 516.096C89.4293 516.096 64.3413 506.88 45.568 488.448C26.7947 470.016 17.408 445.44 17.408 414.72V250.88C17.408 220.16 26.7947 195.584 45.568 177.152C64.3413 158.72 89.4293 149.504 120.832 149.504C152.235 149.504 177.323 158.72 196.096 177.152C215.211 195.584 224.768 220.16 224.768 250.88V414.72C224.768 445.44 215.211 470.016 196.096 488.448C177.323 506.88 152.235 516.096 120.832 516.096ZM120.832 454.144C130.389 454.144 138.069 450.901 143.872 444.416C149.675 437.589 152.576 428.715 152.576 417.792V247.808C152.576 236.885 149.675 228.181 143.872 221.696C138.069 214.869 130.389 211.456 120.832 211.456C111.275 211.456 103.595 214.869 97.792 221.696C92.3307 228.181 89.6 236.885 89.6 247.808V417.792C89.6 428.715 92.3307 437.589 97.792 444.416C103.595 450.901 111.275 454.144 120.832 454.144ZM361.296 516.096C330.576 516.096 305.829 507.051 287.056 488.96C268.624 470.528 259.408 445.952 259.408 415.232V249.344C259.408 218.965 268.624 194.731 287.056 176.64C305.829 158.549 330.576 149.504 361.296 149.504C392.357 149.504 417.104 158.549 435.536 176.64C454.309 194.731 463.696 218.965 463.696 249.344V254.976C463.696 256.683 463.013 258.219 461.648 259.584C460.624 260.608 459.259 261.12 457.552 261.12L397.648 263.68C393.552 263.68 391.504 261.803 391.504 258.048V244.736C391.504 234.837 388.773 226.816 383.312 220.672C377.851 214.528 370.512 211.456 361.296 211.456C352.421 211.456 345.253 214.528 339.792 220.672C334.331 226.816 331.6 234.837 331.6 244.736V421.376C331.6 431.275 334.331 439.296 339.792 445.44C345.253 451.243 352.421 454.144 361.296 454.144C370.512 454.144 377.851 451.243 383.312 445.44C388.773 439.296 391.504 431.275 391.504 421.376V407.552C391.504 405.845 392.016 404.48 393.04 403.456C394.405 402.091 395.941 401.408 397.648 401.408L457.552 403.968C459.259 403.968 460.624 404.651 461.648 406.016C463.013 407.04 463.696 408.405 463.696 410.112V415.232C463.696 445.952 454.309 470.528 435.536 488.96C416.763 507.051 392.016 516.096 361.296 516.096ZM630.54 159.744C630.54 158.037 631.052 156.672 632.076 155.648C633.441 154.283 634.977 153.6 636.684 153.6H696.588C698.295 153.6 699.66 154.283 700.684 155.648C702.049 156.672 702.732 158.037 702.732 159.744V505.856C702.732 507.563 702.049 509.099 700.684 510.464C699.66 511.488 698.295 512 696.588 512H636.684C634.977 512 633.441 511.488 632.076 510.464C631.052 509.099 630.54 507.563 630.54 505.856V366.08C630.54 364.373 629.687 363.52 627.98 363.52H576.78C575.073 363.52 574.22 364.373 574.22 366.08V505.856C574.22 507.563 573.537 509.099 572.172 510.464C571.148 511.488 569.783 512 568.076 512H508.172C506.465 512 504.929 511.488 503.564 510.464C502.54 509.099 502.028 507.563 502.028 505.856V159.744C502.028 158.037 502.54 156.672 503.564 155.648C504.929 154.283 506.465 153.6 508.172 153.6H568.076C569.783 153.6 571.148 154.283 572.172 155.648C573.537 156.672 574.22 158.037 574.22 159.744V299.008C574.22 300.715 575.073 301.568 576.78 301.568H627.98C629.687 301.568 630.54 300.715 630.54 299.008V159.744ZM846.332 516.096C814.929 516.096 789.841 506.88 771.068 488.448C752.295 470.016 742.908 445.44 742.908 414.72V250.88C742.908 220.16 752.295 195.584 771.068 177.152C789.841 158.72 814.929 149.504 846.332 149.504C877.735 149.504 902.823 158.72 921.596 177.152C940.711 195.584 950.268 220.16 950.268 250.88V414.72C950.268 445.44 940.711 470.016 921.596 488.448C902.823 506.88 877.735 516.096 846.332 516.096ZM846.332 454.144C855.889 454.144 863.569 450.901 869.372 444.416C875.175 437.589 878.076 428.715 878.076 417.792V247.808C878.076 236.885 875.175 228.181 869.372 221.696C863.569 214.869 855.889 211.456 846.332 211.456C836.775 211.456 829.095 214.869 823.292 221.696C817.831 228.181 815.1 236.885 815.1 247.808V417.792C815.1 428.715 817.831 437.589 823.292 444.416C829.095 450.901 836.775 454.144 846.332 454.144Z" fill="white"/>
<path d="M1086.8 516.096C1056.08 516.096 1031.33 507.051 1012.56 488.96C994.124 470.528 984.908 445.952 984.908 415.232V249.344C984.908 218.965 994.124 194.731 1012.56 176.64C1031.33 158.549 1056.08 149.504 1086.8 149.504C1117.86 149.504 1142.6 158.549 1161.04 176.64C1179.81 194.731 1189.2 218.965 1189.2 249.344V254.976C1189.2 256.683 1188.51 258.219 1187.15 259.584C1186.12 260.608 1184.76 261.12 1183.05 261.12L1123.15 263.68C1119.05 263.68 1117 261.803 1117 258.048V244.736C1117 234.837 1114.27 226.816 1108.81 220.672C1103.35 214.528 1096.01 211.456 1086.8 211.456C1077.92 211.456 1070.75 214.528 1065.29 220.672C1059.83 226.816 1057.1 234.837 1057.1 244.736V421.376C1057.1 431.275 1059.83 439.296 1065.29 445.44C1070.75 451.243 1077.92 454.144 1086.8 454.144C1096.01 454.144 1103.35 451.243 1108.81 445.44C1114.27 439.296 1117 431.275 1117 421.376V407.552C1117 405.845 1117.52 404.48 1118.54 403.456C1119.91 402.091 1121.44 401.408 1123.15 401.408L1183.05 403.968C1184.76 403.968 1186.12 404.651 1187.15 406.016C1188.51 407.04 1189.2 408.405 1189.2 410.112V415.232C1189.2 445.952 1179.81 470.528 1161.04 488.96C1142.26 507.051 1117.52 516.096 1086.8 516.096ZM1373.06 512C1368.96 512 1366.74 510.123 1366.4 506.368L1358.21 457.216C1358.21 455.509 1357.18 454.656 1355.14 454.656H1290.11C1288.06 454.656 1287.04 455.509 1287.04 457.216L1278.85 506.368C1278.51 510.123 1276.29 512 1272.19 512H1212.29C1207.85 512 1206.14 509.781 1207.17 505.344L1282.43 159.232C1283.11 155.477 1285.33 153.6 1289.09 153.6H1358.21C1361.96 153.6 1364.18 155.477 1364.86 159.232L1439.62 505.344L1440.13 507.392C1440.13 510.464 1438.25 512 1434.5 512H1373.06ZM1297.28 396.288C1297.28 397.995 1297.96 398.848 1299.33 398.848H1345.41C1347.11 398.848 1347.8 397.995 1347.46 396.288L1323.39 256.512C1323.05 255.488 1322.54 254.976 1321.86 254.976C1321.17 254.976 1320.66 255.488 1320.32 256.512L1297.28 396.288ZM1548.69 516.096C1528.89 516.096 1511.48 512.171 1496.46 504.32C1481.45 496.469 1469.84 485.547 1461.65 471.552C1453.46 457.216 1449.36 440.832 1449.36 422.4V407.552C1449.36 405.845 1449.87 404.48 1450.9 403.456C1452.26 402.091 1453.8 401.408 1455.5 401.408H1514.38C1516.09 401.408 1517.46 402.091 1518.48 403.456C1519.85 404.48 1520.53 405.845 1520.53 407.552V418.816C1520.53 429.397 1523.26 437.931 1528.72 444.416C1534.18 450.901 1541.01 454.144 1549.2 454.144C1557.39 454.144 1564.22 451.072 1569.68 444.928C1575.14 438.784 1577.87 430.763 1577.87 420.864C1577.87 410.624 1574.46 401.92 1567.63 394.752C1560.81 387.243 1547.49 376.32 1527.7 361.984C1510.63 349.696 1496.81 338.773 1486.22 329.216C1475.64 319.659 1466.6 307.883 1459.09 293.888C1451.58 279.893 1447.82 263.68 1447.82 245.248C1447.82 216.235 1456.87 193.024 1474.96 175.616C1493.05 158.208 1516.94 149.504 1546.64 149.504C1576.68 149.504 1600.74 158.549 1618.83 176.64C1637.26 194.731 1646.48 218.453 1646.48 247.808V260.096C1646.48 261.803 1645.8 263.339 1644.43 264.704C1643.41 265.728 1642.04 266.24 1640.34 266.24H1581.46C1579.75 266.24 1578.21 265.728 1576.85 264.704C1575.82 263.339 1575.31 261.803 1575.31 260.096V246.272C1575.31 235.691 1572.58 227.328 1567.12 221.184C1562 214.699 1555.17 211.456 1546.64 211.456C1538.45 211.456 1531.79 214.528 1526.67 220.672C1521.55 226.475 1518.99 234.667 1518.99 245.248C1518.99 255.488 1522.23 264.533 1528.72 272.384C1535.21 280.235 1548.01 291.157 1567.12 305.152C1588.28 320.853 1604.15 333.653 1614.74 343.552C1625.66 353.109 1634.02 363.861 1639.82 375.808C1645.97 387.413 1649.04 401.408 1649.04 417.792C1649.04 447.829 1639.82 471.723 1621.39 489.472C1602.96 507.221 1578.73 516.096 1548.69 516.096ZM1879.68 153.6C1881.39 153.6 1882.76 154.283 1883.78 155.648C1885.15 156.672 1885.83 158.037 1885.83 159.744V209.408C1885.83 211.115 1885.15 212.651 1883.78 214.016C1882.76 215.04 1881.39 215.552 1879.68 215.552H1815.68C1813.98 215.552 1813.12 216.405 1813.12 218.112V505.856C1813.12 507.563 1812.44 509.099 1811.08 510.464C1810.05 511.488 1808.69 512 1806.98 512H1747.08C1745.37 512 1743.83 511.488 1742.47 510.464C1741.44 509.099 1740.93 507.563 1740.93 505.856V218.112C1740.93 216.405 1740.08 215.552 1738.37 215.552H1676.93C1675.23 215.552 1673.69 215.04 1672.32 214.016C1671.3 212.651 1670.79 211.115 1670.79 209.408V159.744C1670.79 158.037 1671.3 156.672 1672.32 155.648C1673.69 154.283 1675.23 153.6 1676.93 153.6H1879.68Z" fill="black"/>
</svg>
