<svg width="40" height="40" viewBox="0 0 40 40" fill="none" xmlns="http://www.w3.org/2000/svg">
<path fill-rule="evenodd" clip-rule="evenodd" d="M15.9763 4.30962C16.6014 3.6845 17.4493 3.33331 18.3333 3.33331H21.6666C22.5507 3.33331 23.3985 3.6845 24.0237 4.30962C24.6488 4.93474 25 5.78259 25 6.66665L25 7.64875C25.0678 7.67085 25.134 7.69728 25.1984 7.72787L25.2048 7.72145L25.8833 7.04298C25.8843 7.042 25.8852 7.04103 25.8862 7.04006C26.1955 6.729 26.5631 6.48204 26.9681 6.31334C27.3743 6.14411 27.8099 6.05698 28.25 6.05698C28.69 6.05698 29.1257 6.14411 29.5319 6.31334C29.9381 6.48257 30.3068 6.73054 30.6166 7.04298L32.9736 9.41665C32.9754 9.41842 32.9772 9.4202 32.979 9.42198C33.2889 9.73075 33.535 10.0975 33.7033 10.5014C33.8725 10.9076 33.9596 11.3433 33.9596 11.7833C33.9596 12.2234 33.8725 12.659 33.7033 13.0652C33.5346 13.4702 33.2876 13.8379 32.9765 14.1472C32.9755 14.1481 32.9746 14.149 32.9736 14.15L32.2952 14.8285L32.2888 14.8349C32.3143 14.8886 32.337 14.9438 32.3566 15L33.3333 15C34.2174 15 35.0652 15.3512 35.6903 15.9763C36.3155 16.6014 36.6666 17.4493 36.6666 18.3333V21.7166C36.6666 22.6007 36.3155 23.4485 35.6903 24.0737C35.0652 24.6988 34.2174 25.05 33.3333 25.05H32.25V25.0476L30.6833 24.5L32.1888 25.2151L32.1952 25.2215L32.8736 25.9C32.8747 25.9011 32.8758 25.9021 32.8769 25.9032C33.1878 26.2124 33.4347 26.58 33.6033 26.9847C33.7725 27.3909 33.8596 27.8266 33.8596 28.2666C33.8596 28.7067 33.7725 29.1424 33.6033 29.5486C33.4347 29.9533 33.1878 30.3209 32.8769 30.6301C32.8758 30.6311 32.8747 30.6322 32.8736 30.6333L30.5333 32.9736C30.5322 32.9747 30.5311 32.9758 30.5301 32.9769C30.2209 33.2878 29.8533 33.5347 29.4486 33.7033C29.0424 33.8725 28.6067 33.9596 28.1666 33.9596C27.7266 33.9596 27.2909 33.8725 26.8847 33.7033C26.4798 33.5346 26.1122 33.2877 25.8029 32.9766C25.802 32.9756 25.801 32.9746 25.8 32.9736L25.1215 32.2952L25.1151 32.2888M24.95 32.3566L24.95 33.3333C24.95 34.2174 24.5988 35.0652 23.9737 35.6903C23.3485 36.3155 22.5007 36.6666 21.6166 36.6666H18.2833C17.3993 36.6666 16.5514 36.3155 15.9263 35.6903C15.3012 35.0652 14.95 34.2174 14.95 33.3333L14.95 32.2733C14.8938 32.2536 14.8386 32.231 14.7849 32.2054L14.7785 32.2118L14.1 32.8903C14.0989 32.8914 14.0978 32.8925 14.0967 32.8936C13.7875 33.2045 13.42 33.4513 13.0152 33.62C12.609 33.7892 12.1733 33.8763 11.7333 33.8763C11.2933 33.8763 10.8576 33.7892 10.4514 33.62C10.0466 33.4513 9.67916 33.2045 9.36997 32.8937C9.36886 32.8925 9.36775 32.8914 9.36665 32.8903L7.02631 30.55C7.02538 30.5491 7.02445 30.5481 7.02353 30.5472C6.71241 30.2379 6.4654 29.8702 6.29667 29.4652C6.12744 29.059 6.04032 28.6234 6.04032 28.1833C6.04032 27.7433 6.12744 27.3076 6.29667 26.9014C6.46541 26.4964 6.71243 26.1287 7.02356 25.8194C7.02448 25.8185 7.02539 25.8176 7.02631 25.8166L7.71118 25.1318L9.21665 24.4166L7.64998 24.9643V24.9666H6.66665C5.78259 24.9666 4.93475 24.6155 4.30962 23.9903C3.6845 23.3652 3.33331 22.5174 3.33331 21.6333V18.3C3.33331 17.4159 3.6845 16.5681 4.30962 15.943C4.93474 15.3178 5.78259 14.9666 6.66665 14.9666H7.66001C7.67966 14.9104 7.70231 14.8553 7.72787 14.8015L7.72145 14.7952L7.0402 14.1139C6.72907 13.8046 6.48206 13.4369 6.31334 13.0319C6.14411 12.6257 6.05698 12.19 6.05698 11.75C6.05698 11.3099 6.14411 10.8743 6.31334 10.4681C6.48244 10.0622 6.73018 9.69374 7.04228 9.38401L9.42187 7.02105C9.73066 6.7111 10.0975 6.46495 10.5014 6.29667C10.9076 6.12744 11.3433 6.04032 11.7833 6.04032C12.2234 6.04032 12.659 6.12744 13.0652 6.29667C13.4702 6.4654 13.8379 6.71241 14.1472 7.02353L14.8349 7.71118L15.55 9.21665L15.0023 7.64998H15V6.66665C15 5.78259 15.3512 4.93474 15.9763 4.30962M16.1839 10.7593C15.5803 11.0265 14.9103 11.1087 14.2589 10.9944C13.5798 10.8753 12.9544 10.5485 12.4688 10.0592L11.7833 9.37366L11.7744 9.38265L9.39102 11.7493L9.39517 11.7548L10.0759 12.4355C10.5652 12.9211 10.8919 13.5465 11.0111 14.2255C11.1253 14.877 11.0431 15.547 10.776 16.1506C10.5423 16.7656 10.1316 17.2984 9.59473 17.6811C9.03361 18.081 8.36234 18.2972 7.67329 18.3L7.66665 18.3L6.66665 18.3V21.6333H7.65662C8.34568 21.6361 9.01695 21.8523 9.57807 22.2522C10.1149 22.6349 10.5257 23.1677 10.7593 23.7827C11.0265 24.3863 11.1087 25.0563 10.9944 25.7078C10.8752 26.3869 10.5485 27.0123 10.0591 27.4978C10.0579 27.4991 10.0567 27.5003 10.0554 27.5015L9.37366 28.1833L9.3785 28.1881L11.7285 30.5381L11.7333 30.543L11.7381 30.5381L12.4151 29.8612C12.4163 29.86 12.4175 29.8588 12.4187 29.8576C12.9043 29.3682 13.5297 29.0414 14.2089 28.9222C14.8603 28.808 15.5303 28.8901 16.1339 29.1573C16.7489 29.391 17.2817 29.8017 17.6644 30.3386C18.0643 30.8997 18.2806 31.571 18.2833 32.26L18.2833 32.2666L18.2833 33.3333H21.6166V32.35L21.6167 32.3433C21.6194 31.6543 21.8356 30.983 22.2356 30.4219C22.6182 29.885 23.151 29.4743 23.7661 29.2406C24.3696 28.9735 25.0397 28.8913 25.6911 29.0056C26.3703 29.1247 26.9957 29.4515 27.4813 29.9409C27.4825 29.9421 27.4837 29.9433 27.4849 29.9445L28.1667 30.6263L28.1715 30.6215L30.5215 28.2715L30.5263 28.2666L30.5215 28.2618L29.8445 27.5849C29.8433 27.5837 29.8421 27.5825 29.8409 27.5813C29.3515 27.0957 29.0247 26.4702 28.9056 25.7911C28.7913 25.1397 28.8735 24.4696 29.1406 23.8661C29.3743 23.251 29.785 22.7182 30.3219 22.3356C30.883 21.9356 31.5543 21.7194 32.2433 21.7167L32.25 21.7166L33.3333 21.7166V18.3333H32.35L32.3433 18.3333C31.6543 18.3306 30.983 18.1143 30.4219 17.7144C29.8851 17.3317 29.4743 16.7989 29.2406 16.1839C28.9735 15.5803 28.8913 14.9103 29.0056 14.2589C29.1247 13.5798 29.4515 12.9544 29.9408 12.4688C29.9421 12.4676 29.9433 12.4663 29.9445 12.4651L30.6263 11.7833L30.6173 11.7744L28.2507 9.39102L28.2452 9.39517L27.5644 10.076C27.0788 10.5652 26.4535 10.8919 25.7744 11.0111C25.1288 11.1243 24.4649 11.0446 23.8655 10.7831C23.2397 10.5566 22.6951 10.1475 22.303 9.60764C21.8899 9.0389 21.6672 8.35413 21.6666 7.65121V6.66665H18.3333V7.65662C18.3306 8.34568 18.1143 9.01695 17.7144 9.57807C17.3317 10.1149 16.7989 10.5257 16.1839 10.7593ZM26.3 31.1166L25.1151 32.2888C25.0613 32.3143 25.0062 32.337 24.95 32.3566M20 16.6666C19.3407 16.6666 18.6962 16.8621 18.1481 17.2284C17.5999 17.5947 17.1727 18.1153 16.9204 18.7244C16.6681 19.3335 16.6021 20.0037 16.7307 20.6503C16.8593 21.2969 17.1768 21.8908 17.643 22.357C18.1091 22.8232 18.7031 23.1406 19.3497 23.2693C19.9963 23.3979 20.6665 23.3319 21.2756 23.0796C21.8847 22.8273 22.4053 22.4 22.7715 21.8519C23.1378 21.3037 23.3333 20.6593 23.3333 20C23.3333 19.1159 22.9821 18.2681 22.357 17.643C21.7319 17.0178 20.884 16.6666 20 16.6666ZM16.2962 14.4569C17.3925 13.7243 18.6814 13.3333 20 13.3333C21.7681 13.3333 23.4638 14.0357 24.714 15.2859C25.9643 16.5362 26.6666 18.2319 26.6666 20C26.6666 21.3185 26.2757 22.6075 25.5431 23.7038C24.8106 24.8001 23.7694 25.6546 22.5512 26.1592C21.333 26.6638 19.9926 26.7958 18.6994 26.5385C17.4062 26.2813 16.2183 25.6464 15.2859 24.714C14.3536 23.7817 13.7186 22.5938 13.4614 21.3006C13.2042 20.0074 13.3362 18.6669 13.8408 17.4488C14.3454 16.2306 15.1999 15.1894 16.2962 14.4569Z" fill="#0E2356"/>
</svg>
