<svg width="38" height="38" viewBox="0 0 38 38" fill="none" xmlns="http://www.w3.org/2000/svg">
<path d="M28.5 12.667C31.1234 12.667 33.25 10.5403 33.25 7.91699C33.25 5.29364 31.1234 3.16699 28.5 3.16699C25.8766 3.16699 23.75 5.29364 23.75 7.91699C23.75 10.5403 25.8766 12.667 28.5 12.667Z" stroke="black" stroke-width="3" stroke-linecap="round" stroke-linejoin="round"/>
<path d="M9.5 23.75C12.1234 23.75 14.25 21.6234 14.25 19C14.25 16.3766 12.1234 14.25 9.5 14.25C6.87665 14.25 4.75 16.3766 4.75 19C4.75 21.6234 6.87665 23.75 9.5 23.75Z" stroke="black" stroke-width="3" stroke-linecap="round" stroke-linejoin="round"/>
<path d="M28.5 34.833C31.1234 34.833 33.25 32.7064 33.25 30.083C33.25 27.4597 31.1234 25.333 28.5 25.333C25.8766 25.333 23.75 27.4597 23.75 30.083C23.75 32.7064 25.8766 34.833 28.5 34.833Z" stroke="black" stroke-width="3" stroke-linecap="round" stroke-linejoin="round"/>
<path d="M13.6006 21.3906L24.4148 27.6923" stroke="black" stroke-width="3" stroke-linecap="round" stroke-linejoin="round"/>
<path d="M24.3989 10.3076L13.6006 16.6093" stroke="black" stroke-width="3" stroke-linecap="round" stroke-linejoin="round"/>
</svg>